<svg xmlns="http://www.w3.org/2000/svg" width="12" height="8" viewBox="0 0 12 8" fill="none">
<path d="M1.1522 0.348762C1.09651 0.288617 1.03099 0.241597 0.959402 0.210387C0.88781 0.179176 0.811541 0.164387 0.734948 0.166863C0.658355 0.169339 0.582939 0.189033 0.513006 0.224818C0.443072 0.260604 0.379991 0.311782 0.327364 0.375429C0.274737 0.439076 0.233594 0.513947 0.206285 0.595767C0.178976 0.677586 0.166035 0.76475 0.168202 0.852285C0.170369 0.93982 0.1876 1.02601 0.218913 1.10593C0.250225 1.18586 0.295006 1.25795 0.350697 1.3181L5.6007 6.98476C5.709 7.10179 5.8524 7.16699 6.00145 7.16699C6.1505 7.16699 6.29389 7.10179 6.4022 6.98476L11.6528 1.3181C11.7097 1.25835 11.7556 1.18627 11.788 1.10605C11.8203 1.02583 11.8384 0.939074 11.8411 0.850812C11.8439 0.762549 11.8312 0.674542 11.804 0.591904C11.7767 0.509266 11.7353 0.433644 11.6823 0.369431C11.6292 0.305217 11.5655 0.253691 11.4949 0.217847C11.4243 0.182003 11.3481 0.162555 11.2709 0.160632C11.1936 0.158709 11.1168 0.174349 11.0448 0.206645C10.9729 0.238941 10.9073 0.287249 10.8519 0.348762L6.00145 5.58343L1.1522 0.348762Z" fill="white"/>
</svg>
