<svg xmlns="http://www.w3.org/2000/svg" width="40" height="41" viewBox="0 0 40 41" fill="none">
<g clip-path="url(#clip0_195_1747)">
<path fill-rule="evenodd" clip-rule="evenodd" d="M10.4545 10.9545C10.7557 10.6533 11.2442 10.6533 11.5454 10.9545L19.9999 19.409L28.4545 10.9545C28.7557 10.6533 29.2442 10.6533 29.5454 10.9545C29.8467 11.2558 29.8467 11.7442 29.5454 12.0455L21.0909 20.5L29.5453 28.9544C29.8466 29.2557 29.8466 29.7441 29.5453 30.0454C29.2441 30.3466 28.7556 30.3466 28.4544 30.0454L19.9999 21.591L11.5454 30.0455C11.2442 30.3467 10.7557 30.3467 10.4545 30.0455C10.1532 29.7442 10.1532 29.2558 10.4545 28.9545L18.909 20.5L10.4545 12.0455C10.1532 11.7442 10.1532 11.2558 10.4545 10.9545Z" fill="white"/>
</g>
<defs>
<clipPath id="clip0_195_1747">
<rect width="40" height="40" fill="white" transform="translate(0 0.5)"/>
</clipPath>
</defs>
</svg>