<svg width="100" height="100" viewBox="0 0 100 100" fill="none" xmlns="http://www.w3.org/2000/svg">
<g clip-path="url(#clip0_184_732)">
<rect x="50.334" y="73" width="19" height="16" fill="#B0A273"/>
<path d="M74.334 42L59.834 17.5L53.834 26.5L44.834 34L52.334 46.5L68.334 41L74.334 42Z" fill="#B0A273"/>
<path d="M38.6496 65.758C34.3062 65.758 29.9661 65.758 25.6228 65.758C25.3276 65.758 25.0259 65.758 24.734 65.7191C24.1728 65.638 23.8809 65.2423 23.829 64.7297C23.7771 64.2074 24.0269 63.7954 24.5458 63.5878C24.8572 63.4645 25.1816 63.484 25.5027 63.484C34.2673 63.484 43.0351 63.484 51.7996 63.484C52.124 63.484 52.4484 63.4613 52.7565 63.5878C53.269 63.7987 53.5123 64.1977 53.4637 64.7329C53.415 65.265 53.1198 65.638 52.5651 65.7191C52.2732 65.7613 51.9748 65.758 51.6764 65.758C47.333 65.758 42.9929 65.758 38.6496 65.758Z" fill="#040101"/>
<path d="M34.967 57.359C31.8401 57.359 28.7131 57.359 25.5862 57.359C25.291 57.359 24.9926 57.359 24.7006 57.3103C24.1395 57.2195 23.854 56.8107 23.8248 56.2982C23.7924 55.7435 24.0681 55.299 24.652 55.1693C24.9634 55.0979 25.291 55.0914 25.6154 55.0914C31.8401 55.0882 38.068 55.0882 44.2927 55.0914C45.5513 55.0914 46.0833 55.4191 46.1027 56.2106C46.1222 57.0281 45.5837 57.3687 44.2668 57.3687C41.1658 57.3687 38.068 57.3687 34.967 57.3687V57.359Z" fill="#040101"/>
<path d="M85.8123 30.1581C85.0046 30.1581 84.197 30.1744 83.386 30.1549C82.5427 30.1354 82.0756 29.7364 82.0496 29.0649C82.0269 28.3967 82.5005 27.9101 83.3114 27.8971C85.0079 27.8679 86.7076 27.8679 88.4041 27.8971C89.2215 27.9101 89.6789 28.3902 89.6529 29.0746C89.627 29.7299 89.1891 30.1322 88.3976 30.1549C87.5348 30.1808 86.6719 30.1614 85.8123 30.1614V30.1581Z" fill="#050202"/>
<path d="M79.3115 11.1771C79.3472 11.4236 79.2142 11.6637 79.0779 11.8973C78.2767 13.2954 77.4755 14.6936 76.6581 16.0852C76.2137 16.8443 75.5131 17.0844 74.9195 16.7081C74.3421 16.3448 74.2578 15.7187 74.7054 14.9304C75.5163 13.5063 76.3435 12.0887 77.1609 10.671C77.4658 10.1423 77.9134 9.87625 78.507 10.0579C79.0066 10.2104 79.318 10.5737 79.3082 11.1803L79.3115 11.1771Z" fill="#040000"/>
<path d="M87.7487 18.2592C87.7811 18.6485 87.5443 18.9761 87.1843 19.187C85.7538 20.0272 84.3201 20.8609 82.8701 21.6686C82.2311 22.0255 81.5824 21.8308 81.2677 21.2631C80.9531 20.6987 81.1347 20.0856 81.7835 19.7028C83.1653 18.8821 84.5504 18.0711 85.9517 17.2893C86.8599 16.7832 87.7455 17.2536 87.7487 18.2592Z" fill="#040000"/>
<path d="M81.2833 38.0537C79.9209 35.5818 78.4937 33.1456 77.0502 30.7223C76.7323 30.187 76.7388 29.9178 77.2384 29.4961C79.1554 27.8579 79.5836 25.1264 78.3347 22.9757C77.0729 20.8087 74.5169 19.8387 72.136 20.6919C71.5554 20.8995 71.3153 20.786 71.0234 20.2734C69.6091 17.7691 68.1916 15.2647 66.6995 12.809C65.4312 10.7199 62.8427 10.0386 60.6954 11.1189C58.535 12.2056 57.5068 14.7229 58.4572 16.9321C58.788 17.7009 58.6388 18.207 58.2626 18.8363C55.1875 23.978 51.068 28.166 46.4035 31.8545C45.8294 32.3086 45.3201 32.9217 44.4346 32.659C44.2918 32.6168 44.0745 32.7433 43.9156 32.8341C41.8882 34.002 39.835 35.1276 37.8498 36.3604C35.1445 38.0407 33.8633 40.5581 33.7757 42.8937C33.7238 50.1473 40.5356 54.3904 46.2965 51.4806C46.9906 51.1302 47.2631 51.2762 47.6783 51.8407C50.2603 55.3571 52.8812 58.8477 55.4957 62.3415C56.631 63.8596 58.2691 64.0089 59.6833 62.7437C60.1666 62.3123 60.6499 61.8808 61.1235 61.4396C62.3789 60.275 62.5216 58.932 61.516 57.5566C60.5786 56.272 59.6249 55.0036 58.6778 53.7287C57.0851 51.5876 55.5119 49.4369 53.89 47.3218C53.4781 46.7833 53.5884 46.6114 54.1722 46.42C54.9345 46.1702 55.6676 45.8263 56.4234 45.5506C61.4868 43.7112 66.6768 42.5142 72.0906 42.4428C72.7231 42.4331 73.1513 42.5791 73.5567 43.15C74.6823 44.7461 76.8102 45.3657 78.6721 44.7558C81.4617 43.8475 82.73 40.6749 81.2865 38.0602L81.2833 38.0537ZM73.0669 22.7518C74.864 22.2003 76.755 23.6472 76.7453 25.7428C76.7648 26.424 76.4436 27.1085 75.8792 27.6957C75.6814 27.9033 75.5159 28.059 75.2954 27.6665C74.4844 26.2164 73.654 24.7761 72.8074 23.3422C72.5901 22.9757 72.668 22.8718 73.0669 22.7486V22.7518ZM45.5018 49.3493C44.5481 49.8878 43.5036 50.1181 42.657 50.1441C39.6047 50.1278 37.0421 48.2042 36.2669 45.5246C35.4786 42.8062 36.5588 39.8347 38.9624 38.3327C40.5324 37.3498 42.1704 36.4804 43.7566 35.5234C44.1297 35.2996 44.2464 35.4196 44.4216 35.7245C46.3873 39.1502 48.353 42.5726 50.3446 45.982C50.5847 46.3908 50.4484 46.5205 50.1176 46.7054C48.5736 47.5781 47.049 48.4767 45.505 49.3493H45.5018ZM59.5341 58.6887C59.6736 58.8769 59.7904 59.0877 59.8715 59.2143C59.8715 59.5322 59.6995 59.636 59.5633 59.7625C59.1676 60.1258 58.7297 60.4535 58.3729 60.8525C57.8863 61.3942 57.5652 61.3553 57.1305 60.7616C55.3692 58.3514 53.5689 55.9703 51.7848 53.5794C51.0128 52.5446 50.2538 51.5 49.4591 50.4847C49.1509 50.0922 49.0763 49.8618 49.6116 49.6056C50.3576 49.2455 51.1102 48.4247 51.7751 48.5026C52.4563 48.5837 52.8228 49.6834 53.3191 50.3419C55.4016 53.1156 57.4646 55.9021 59.5341 58.6887ZM68.2176 40.4088C62.9595 40.9246 57.9447 42.3909 53.0921 44.4249C52.4368 44.7006 52.1514 44.6325 51.7978 44.0032C50.2084 41.1679 48.593 38.3424 46.916 35.5558C46.4878 34.8422 46.6111 34.5437 47.2307 34.0669C52.3006 30.187 56.7348 25.7039 60.1666 20.082C64.0461 26.8003 67.8705 33.4245 71.7402 40.1299C70.5076 40.2272 69.3593 40.2953 68.2176 40.4056V40.4088ZM77.7541 42.6407C76.7031 42.91 75.6879 42.4104 75.0229 41.2588C72.7069 37.2589 70.4006 33.2559 68.0911 29.256C65.6875 25.0907 63.2774 20.9319 60.8738 16.7667C60.0888 15.4042 60.3321 14.0158 61.4739 13.2826C61.8663 13.0296 62.2913 12.8706 62.6546 12.9063C63.832 12.9063 64.5035 13.4805 65.0095 14.3596C67.4326 18.5768 69.8686 22.7843 72.2982 26.995C74.5915 30.9753 76.8945 34.9492 79.1716 38.9393C80.0831 40.5386 79.4214 42.2125 77.7509 42.6407H77.7541Z" fill="#030000"/>
<path d="M68.2431 71.3015C66.5272 71.3015 64.808 71.3015 63.0921 71.3015C63.0921 71.1847 63.0694 71.1166 63.0953 71.0874C63.3029 70.8376 63.5235 70.6008 63.7278 70.351C67.0073 66.3836 68.4767 61.9393 67.1273 56.8333C66.0795 52.8756 63.6305 49.8555 60.4387 47.3868C59.6699 46.7899 59.0699 46.7867 58.606 47.3641C58.1649 47.9156 58.3238 48.6001 59.0342 49.158C60.27 50.128 61.4118 51.1952 62.372 52.4409C64.5582 55.2794 65.7519 58.4196 65.2102 62.0626C64.675 65.6505 62.732 68.4208 60.1208 70.8084C59.7154 71.1782 59.2904 71.3145 58.7422 71.3112C56.1246 71.2853 53.5069 71.2918 50.8924 71.3015C49.0532 71.3112 48.0444 72.3298 48.0315 74.153C48.0282 74.8537 48.0055 75.5576 48.0412 76.2583C48.0639 76.6865 47.9244 76.8455 47.4962 76.9428C43.3345 77.903 39.1307 78.1398 34.8911 77.7408C34.3137 77.6857 33.8596 77.8057 33.3893 78.1366C29.7985 80.6604 26.1979 83.1615 22.5909 85.6626C22.3703 85.8151 22.179 86.0584 21.8189 86.0941C22.5325 83.0058 23.2364 79.9759 23.9306 76.9428C24.3069 75.2884 24.2485 75.191 22.7466 74.4579C19.7851 73.0111 17.1512 71.1393 15.0428 68.5701C11.3482 64.0739 10.9265 58.5169 13.9918 53.745C16.2657 50.2058 19.5678 47.8864 23.311 46.1314C25.5816 45.0674 27.9528 44.305 30.4051 43.7892C31.2387 43.614 31.6636 43.0366 31.5209 42.3846C31.3749 41.7098 30.8073 41.4114 29.9347 41.5736C29.4352 41.6677 28.9356 41.7812 28.4426 41.9077C23.0969 43.3026 18.2476 45.6156 14.3421 49.6316C8.56505 55.5714 8.12066 63.4413 13.1971 69.8839C15.338 72.5991 18.0627 74.5941 21.1053 76.1707C21.5529 76.401 21.7184 76.5892 21.5724 77.1439C21.0793 79.0124 20.6739 80.9037 20.236 82.7885C19.8046 84.6473 19.3634 86.5028 18.945 88.3616C18.7179 89.3737 19.3699 90.188 20.236 89.9609C20.5603 89.8766 20.8588 89.6527 21.141 89.4548C25.4713 86.4379 29.7952 83.4178 34.1191 80.3944C34.4338 80.1738 34.7289 80.0343 35.1506 80.0635C39.4453 80.3684 43.7108 80.1641 48.0347 79.1455C48.0347 81.7569 48.0347 84.2904 48.0347 86.8272C48.0347 89.0364 48.9786 89.9901 51.1584 89.9901C56.8771 89.9901 62.599 89.9901 68.3177 89.9901C70.3159 89.9901 71.3538 88.9585 71.3571 86.9635C71.3571 82.782 71.3571 78.6005 71.3571 74.4157C71.3571 72.2909 70.371 71.2982 68.2464 71.2982L68.2431 71.3015ZM68.2431 87.7388C65.3854 87.7128 62.5277 87.7258 59.6699 87.7258C56.8122 87.7258 53.9545 87.7128 51.0968 87.7355C50.5129 87.7388 50.2923 87.5831 50.2956 86.9635C50.3183 82.756 50.3183 78.5518 50.2956 74.3444C50.2923 73.7312 50.4902 73.5625 51.0806 73.5658C56.822 73.582 62.5666 73.582 68.308 73.5658C68.9178 73.5658 69.093 73.7864 69.0897 74.3735C69.0703 78.5518 69.067 82.7333 69.0897 86.9116C69.093 87.5604 68.8659 87.742 68.2399 87.7355L68.2431 87.7388Z" fill="#030000"/>
<path d="M85.7402 45.8493C84.2189 45.0254 82.5873 45.4438 81.6888 46.9231C81.1309 47.8411 80.6151 48.7819 80.0767 49.7129C79.6809 50.4006 79.5966 51.1338 79.788 51.8929C80.0442 52.9147 80.7546 53.5506 81.6726 53.9658C82.3927 54.2902 82.4932 54.7476 82.2143 55.458C81.3969 57.5504 80.3362 59.4968 78.9641 61.2745C78.2786 62.1612 77.4503 62.3461 76.4794 61.8292C74.9743 61.028 73.3719 61.4367 72.4863 62.877C71.9252 63.7918 71.3835 64.7229 70.871 65.6636C70.0406 67.1883 70.5012 68.7941 71.9836 69.7056C74.9354 71.519 77.7866 71.1038 80.5211 69.245C83.1842 67.4348 85.0947 64.937 86.6712 62.1796C88.3417 59.26 89.5354 56.1749 89.6651 53.0802C89.6586 49.7129 88.4844 47.3383 85.7402 45.8526V45.8493ZM84.7022 61.028C83.3301 63.435 81.6726 65.6182 79.3987 67.2564C77.5595 68.58 75.5971 69.1379 73.453 67.9312C72.6485 67.4802 72.5707 67.2467 73.0151 66.4681C73.4141 65.7674 73.826 65.0732 74.2347 64.379C74.6986 63.5907 74.8932 63.5356 75.7074 64.0092C76.2685 64.3336 76.8297 64.6677 77.4882 64.7164C78.5294 64.791 79.3695 64.3628 80.0345 63.5777C81.9645 61.2972 83.4372 58.7507 84.4492 55.9414C85.0136 54.3778 84.5335 53.0704 83.1193 52.1978C82.8922 52.0583 82.6619 51.9123 82.4251 51.7891C81.9353 51.536 81.8672 51.163 82.1202 50.7153C82.61 49.8492 83.116 48.9928 83.6123 48.1331C83.9205 47.5978 84.3162 47.6692 84.7736 47.9222C86.6776 48.9765 87.414 50.6602 87.388 53.1321C87.2421 55.7565 86.1651 58.462 84.7022 61.0312V61.028Z" fill="#030000"/>
<path d="M35.872 21.7566C35.8006 20.7834 35.1292 20.1638 34.1496 20.0276C32.4758 19.7908 31.986 18.6586 32.9786 17.3026C33.676 16.3489 33.6306 15.4763 32.8164 14.6166C32.3331 14.1073 31.8368 13.6142 31.3308 13.1276C30.4193 12.2517 29.4948 12.1804 28.5217 12.9687C27.9897 13.4001 27.4545 13.5656 26.8123 13.2963C26.1603 13.0238 25.9332 12.4886 25.8683 11.8235C25.758 10.6946 25.025 10.0329 23.8897 10.0134C23.2442 10.0004 22.5954 10.0101 21.9467 10.0134C20.487 10.0134 19.8934 10.5195 19.6696 11.9436C19.4425 13.3807 18.2358 13.8737 17.0713 12.9914C16.6529 12.6767 16.2215 12.4237 15.6765 12.4431C15.1997 12.4529 14.7748 12.6183 14.4342 12.9427C13.8114 13.5396 13.1854 14.1365 12.608 14.7756C11.9268 15.5249 11.9268 16.4203 12.5464 17.2767C13.5681 18.6943 13.101 19.7875 11.3689 20.0341C10.3633 20.1768 9.71134 20.8678 9.6789 21.8734C9.65295 22.7071 9.64971 23.5473 9.6789 24.381C9.71458 25.3672 10.412 26.0809 11.3948 26.2041C13.0621 26.415 13.5714 27.5796 12.5755 28.9031C11.9041 29.7952 11.9236 30.7327 12.6729 31.5373C13.2048 32.1114 13.7595 32.6629 14.3336 33.1949C15.1576 33.9638 16.0334 33.9897 16.9611 33.315C18.3202 32.3223 19.462 32.8024 19.6923 34.4666C19.8382 35.5144 20.5097 36.1697 21.5704 36.2183C22.3781 36.2573 23.189 36.2573 23.9967 36.2183C25.0023 36.1697 25.7353 35.4755 25.8651 34.5315C26.1019 32.7959 27.2015 32.3158 28.606 33.3312C29.5208 33.9962 30.3901 33.9605 31.2367 33.182C31.7914 32.6727 32.3266 32.1374 32.8391 31.5794C33.6403 30.7068 33.6662 29.8407 32.9591 28.8837C31.999 27.5828 32.5082 26.3955 34.1041 26.2041C35.0967 26.0841 35.8136 25.4159 35.8752 24.4232C35.9304 23.5376 35.9336 22.639 35.8687 21.7566H35.872ZM33.0305 24.1085C30.5652 24.6795 29.391 27.5017 30.7339 29.6493C31.1167 30.2624 30.7664 30.4408 30.4614 30.7392C30.1468 31.0474 29.9652 31.4724 29.3164 31.0669C27.2404 29.7693 24.3924 30.882 23.8021 33.2079C23.6399 33.847 23.4226 34.1033 22.79 33.9411C22.1153 34.1162 21.9142 33.7983 21.7358 33.1625C21.0871 30.856 18.3299 29.7985 16.2637 31.0442C15.7933 31.3296 15.5338 31.2875 15.2289 30.882C14.9435 30.5024 14.4018 30.337 14.8494 29.6071C16.1728 27.4498 14.9759 24.6924 12.4782 24.0988C11.7062 23.9139 11.9819 23.4111 11.9495 22.9893C11.9203 22.6033 11.849 22.2692 12.475 22.1297C14.9824 21.575 16.1793 18.743 14.8137 16.5435C14.3888 15.8558 14.9175 15.7196 15.1867 15.4081C15.4462 15.1065 15.6279 14.7885 16.2053 15.1421C18.4467 16.5208 21.1974 15.327 21.8137 12.7351C21.9369 12.2128 22.2289 12.2258 22.563 12.2842C22.9717 12.3556 23.5264 11.9468 23.7372 12.7221C24.4865 15.4438 27.0263 16.4787 29.4754 15.0708C29.7673 14.9021 29.9003 14.9443 30.1436 15.1486C30.7566 15.6644 31.0259 16.0569 30.5458 16.9555C29.4462 19.0122 30.7469 21.6139 33.0499 22.1264C33.6954 22.2692 33.6371 22.613 33.6208 23.0413C33.6079 23.4922 33.7733 23.9366 33.0272 24.1085H33.0305Z" fill="#030000"/>
<circle cx="22.834" cy="23.5" r="4.5" stroke="#030000" stroke-width="2"/>
<path d="M57.334 83.6683V78.3317C57.334 77.5405 58.2092 77.0627 58.8747 77.4905L63.0255 80.1588C63.6378 80.5525 63.6378 81.4475 63.0255 81.8412L58.8747 84.5095C58.2092 84.9373 57.334 84.4595 57.334 83.6683Z" fill="white" stroke="black" stroke-width="1.5"/>
</g>
<defs>
<clipPath id="clip0_184_732">
<rect width="80" height="80" fill="white" transform="translate(9.66602 10)"/>
</clipPath>
</defs>
</svg>
