<svg width="100" height="100" viewBox="0 0 100 100" fill="none" xmlns="http://www.w3.org/2000/svg">
<g clip-path="url(#clip0_184_755)">
<path d="M43.168 47.5L39.668 49.5V53.5L44.668 56.5L47.668 57.5L54.168 60.5L55.668 58V49.5L54.168 47.5H43.168Z" fill="#B0A273"/>
<path d="M25.168 47.5L28.668 49.5V53.5L23.668 56.5L20.668 57.5L14.168 60.5L12.668 58V49.5L14.168 47.5H25.168Z" fill="#B0A273"/>
<path d="M58.168 76.5L54.168 77.5L55.168 80L57.668 84.5L62.668 86.5L63.668 81.5L58.168 76.5Z" fill="#B0A273"/>
<path d="M66.1073 56.5147L65.7344 53.5311C65.6929 53.1993 65.4883 52.9102 65.1893 52.7607L64.2065 52.2693C63.8752 52.1036 63.4795 52.1347 63.178 52.35L56.8514 56.869C56.7306 56.9552 56.6306 57.0673 56.5585 57.1971L52.1752 65.087C51.8987 65.5847 52.0929 66.2125 52.6021 66.4671L56.3886 68.3603C56.5705 68.4513 56.7758 68.4846 56.9772 68.4558L59.0703 68.1568C59.6574 68.0729 60.0429 67.4996 59.899 66.9243L59.3053 64.5493C59.2201 64.2085 59.3199 63.848 59.5683 63.5996L61.168 62L65.8221 57.3458C66.0403 57.1276 66.1456 56.8209 66.1073 56.5147Z" fill="#B0A273"/>
<path d="M85.6814 57.1627C82.4066 53.2662 78.2051 50.9126 73.1709 50.2147C67.1317 49.3759 61.7844 51.0785 57.0381 55.0783C57.0381 53.3945 57.0475 51.8421 57.0381 50.2929C57.0162 47.6921 55.3382 46.0239 52.7302 45.9957C52.0008 45.9863 51.2713 45.9957 50.5418 45.9957H45.0317C46.5251 43.9739 47.3579 41.8237 47.671 39.4796C47.7023 39.2354 47.8056 39.1447 48.0435 39.0664C50.9238 38.14 52.4954 34.9007 51.2369 31.9305C51.096 31.5957 51.1398 31.4642 51.4842 31.386C51.6846 31.3422 51.8661 31.2201 52.0634 31.1606C53.2844 30.7944 54.1078 30.059 54.305 28.7476C54.5022 27.4612 53.8792 26.5661 52.9181 25.815C51.7284 24.8886 50.5575 23.934 49.3741 23.0013C49.036 22.7353 48.8325 22.438 48.7479 21.9841C48.4818 20.5851 48.1093 19.2049 47.8369 17.8059C46.8319 12.6293 42.596 9.83439 38.1253 10.0065C35.3671 10.1129 32.6027 10.0159 29.8445 10.0284C25.7401 10.0472 22.1272 12.864 21.1191 16.8451C20.6808 18.579 20.2926 20.3254 19.9231 22.0749C19.8417 22.4661 19.6727 22.7228 19.3721 22.9575C18.0854 23.9716 16.7986 24.9856 15.5307 26.0247C13.6335 27.5802 14.0592 30.1873 16.3384 31.0699C16.6265 31.1825 16.9145 31.3109 17.215 31.3828C17.5782 31.4705 17.5813 31.6364 17.453 31.9462C16.1443 35.0947 17.9351 38.1963 20.6902 39.0414C20.95 39.1228 21.0878 39.2229 21.1159 39.5015C21.3351 41.855 22.2336 43.9489 23.6738 45.9926C20.9907 45.9926 18.4423 45.9738 15.8907 45.9989C13.3767 46.0239 11.7174 47.642 11.6893 50.1364C11.6548 53.1566 11.683 56.1769 11.6799 59.194C11.6799 60.1611 11.9115 61.0624 12.5533 61.7948C12.8351 62.1172 12.7913 62.3519 12.6441 62.6805C12.0681 63.9731 11.7331 65.3314 11.7112 66.7492C11.683 68.624 11.6767 70.4987 11.6861 72.3703C11.6861 72.7928 11.5922 73.0901 11.2478 73.3718C10.606 73.8945 10.3305 74.6081 10.3368 75.4375C10.3462 76.6612 10.3556 77.8849 10.3368 79.1087C10.318 80.0288 10.6123 80.7987 11.3292 81.3746C11.6079 81.5968 11.6893 81.8347 11.6861 82.1727C11.6767 83.1367 11.6548 84.1007 11.7206 85.0615C11.9053 87.8564 14.1719 89.9909 16.974 89.994C28.5389 90.0034 40.1039 90.0034 51.6689 89.994C54.1078 89.994 56.1177 88.4479 56.7908 86.0912C56.8941 85.7313 56.9599 85.3588 57.0475 84.9645C66.4554 92.9798 78.8782 90.5511 85.3526 83.2431C91.8301 75.9351 92.0524 64.743 85.6845 57.1627H85.6814ZM63.5376 54.0799C64.195 53.7795 64.5175 53.9266 64.7461 54.5682C64.8681 54.9124 64.9777 55.2505 65.0184 55.6135C64.9652 56.4648 64.6146 57.1502 63.9414 57.6823C62.3322 58.9561 60.7387 60.2518 59.1295 61.5225C57.4201 62.8746 57.1884 64.4019 58.4658 66.1702C58.6536 66.43 58.7444 66.6741 58.6035 66.9589C58.4626 67.2406 58.2059 67.3501 57.8928 67.3345C56.2649 67.2594 54.9812 66.4957 53.9011 65.3314C53.6663 65.0779 53.8291 64.8557 53.9105 64.6147C55.5824 59.701 58.8321 56.2332 63.5376 54.0799ZM47.8181 48.6748C49.4304 48.6748 51.0459 48.6654 52.6582 48.6748C53.8855 48.6842 54.3488 49.1505 54.3551 50.3805C54.3645 52.7717 54.3394 55.1659 54.3708 57.5571C54.377 58.0954 54.0671 58.424 53.7947 58.7871C53.5442 59.1188 53.4033 58.7527 53.2625 58.6275C51.5374 57.0532 49.5651 55.8295 47.2389 55.6229C45.2634 55.4476 44.0362 54.1895 42.596 53.1817C42.5115 53.1222 42.4332 53.044 42.3424 53.0033C40.8428 52.3898 40.896 51.1192 40.9993 49.8328C41.0338 49.3884 42.1045 48.6748 42.7463 48.6717C44.4369 48.6623 46.1275 48.6717 47.8212 48.6717L47.8181 48.6748ZM47.6803 75.7097C47.6772 75.3968 47.7993 75.2872 48.0936 75.3248C48.1437 75.331 48.1969 75.3248 48.2501 75.3248C49.1361 75.3248 50.1442 75.065 50.8706 75.403C51.6126 75.7504 51.5249 76.921 51.8912 77.694C52.1291 78.1979 52.7083 78.8583 52.461 79.2057C52.1698 79.6126 51.3621 79.2996 50.7798 79.3434C50.5732 79.3591 50.3634 79.3434 50.1568 79.3434C49.4805 79.3434 48.8043 79.3278 48.128 79.3497C47.7837 79.3622 47.6803 79.2401 47.6835 78.9021C47.6991 77.8349 47.6991 76.7707 47.6835 75.7035L47.6803 75.7097ZM30.6084 52.2114C30.0855 51.8234 30.4518 51.3007 30.289 50.7029C32.108 51.2537 33.8237 51.4227 35.5769 51.2757C36.2531 51.2193 36.9074 51.0597 37.568 50.9408C37.806 50.8969 38.166 50.6247 38.2505 50.8719C38.382 51.2537 38.5292 51.8077 38.1535 52.1113C36.9607 53.069 35.7146 53.9579 34.4936 54.8811C34.2745 55.047 34.1618 54.8655 34.0365 54.7716C32.8907 53.9234 31.7511 53.0596 30.6052 52.2114H30.6084ZM32.0673 57.1471C31.1093 58.133 30.1795 59.147 29.2371 60.1485C29.1714 60.2205 29.0868 60.2769 28.9021 60.4302C28.8301 60.3019 28.7831 60.1704 28.6955 60.0766C27.8126 59.1251 26.9391 58.1643 26.0312 57.241C25.6868 56.8905 25.8027 56.7277 26.1377 56.4898C26.9798 55.8858 27.8095 55.263 28.6235 54.6245C28.8833 54.4211 29.0618 54.3585 29.3561 54.5901C30.2076 55.2661 31.0874 55.9077 31.9609 56.5556C32.1863 56.7246 32.3585 56.8466 32.0673 57.1471ZM36.61 56.6401C37.5712 55.9327 38.526 55.216 39.484 54.5024C39.5435 54.4586 39.6124 54.4273 39.7063 54.3741C39.8065 54.4492 39.9098 54.5243 40.01 54.6026C40.9023 55.2724 41.7883 55.9515 42.6931 56.6025C42.9467 56.784 42.9717 56.9061 42.7588 57.1283C41.8102 58.1267 40.8678 59.1314 39.9317 60.1454C39.7439 60.352 39.6187 60.3426 39.434 60.1454C38.4947 59.1376 37.5524 58.133 36.6006 57.1377C36.4284 56.9562 36.3596 56.8279 36.6069 56.6463L36.61 56.6401ZM44.0518 15.4711C44.8971 16.6135 45.1225 17.978 45.4105 19.3176C45.5859 20.1282 45.7737 20.9325 45.9647 21.7369C46.0586 22.1375 45.996 22.3284 45.5076 22.3816C44.0894 22.5381 42.6774 22.7509 41.2686 22.9669C40.8177 23.0358 40.6549 22.9419 40.6174 22.438C40.4045 19.6963 40.1509 16.9546 39.8879 14.2161C39.8441 13.7654 39.6969 13.3241 39.578 12.8014C41.5002 13.0236 42.9404 13.9719 44.0487 15.468L44.0518 15.4711ZM30.7179 22.7729C30.9715 20.0593 31.197 17.3458 31.438 14.6323C31.5006 13.9031 31.8669 13.3022 32.5056 13.0174C33.7109 12.479 34.982 12.479 36.1905 13.0174C36.8386 13.3053 37.1798 13.9093 37.2424 14.6355C37.4459 17.0141 37.6682 19.3896 37.8498 21.7713C37.9625 23.2799 37.9375 23.283 36.4128 23.3018C35.7115 23.3112 35.0102 23.3018 34.3089 23.3018C34.3089 23.2893 34.3089 23.2799 34.3089 23.2674C33.2695 23.2674 32.2301 23.2674 31.1907 23.2674C30.8494 23.2674 30.6804 23.186 30.7211 22.7697L30.7179 22.7729ZM22.7158 21.7557C23.0382 20.3442 23.2949 18.9138 23.6894 17.5242C24.3625 15.1519 25.9154 13.6058 28.3104 12.9329C28.5609 12.864 28.8051 12.7889 29.1338 12.8703C28.564 14.4602 28.6454 16.0877 28.4763 17.6776C28.3104 19.2519 28.1977 20.8293 28.0787 22.4067C28.0474 22.8448 27.9441 23.042 27.4307 22.9575C25.9968 22.7259 24.5598 22.5319 23.1165 22.3722C22.6469 22.319 22.6312 22.1031 22.7126 21.7525L22.7158 21.7557ZM17.766 28.7257C17.525 28.6412 17.1148 28.6787 17.0835 28.3282C17.0585 28.0496 17.4123 27.962 17.6064 27.8024C18.674 26.9323 19.776 26.1029 20.8154 25.1953C21.2287 24.8354 21.6294 24.7947 22.099 24.8792C27.008 25.7586 31.9515 26.1436 36.9356 25.9402C40.1321 25.8119 43.313 25.4832 46.4625 24.9105C47.026 24.8072 47.48 24.8448 47.9558 25.2579C49.0328 26.1937 50.1755 27.0575 51.2964 27.9464C51.6814 28.2499 51.7879 28.4252 51.193 28.6349C47.5551 29.9181 43.8233 30.7538 39.985 31.1199C38.0909 31.3015 36.1936 31.3672 33.9082 31.3547C28.6297 31.4486 23.1196 30.5754 17.766 28.7194V28.7257ZM21.5636 36.547C19.9482 36.0462 19.2344 34.2935 19.9544 32.8382C20.1392 32.4626 20.327 32.3218 20.7966 32.4376C27.2491 34.0431 33.7986 34.3499 40.3982 33.7427C42.9091 33.5111 45.3918 33.076 47.8369 32.4595C48.3973 32.3186 48.5851 32.5064 48.773 32.9321C49.3929 34.3342 48.7354 36.0337 47.2358 36.4906C45.6485 36.9757 45.038 38.0305 44.8721 39.5766C44.3805 44.1742 40.2448 48.1834 35.6113 48.6185C35.1699 48.6592 34.7316 48.7061 34.2933 48.7531C28.899 48.6936 24.3625 44.6092 23.7646 39.2448C23.6112 37.8677 22.9318 36.9757 21.5605 36.5501L21.5636 36.547ZM14.3629 50.3586C14.3629 49.113 14.7981 48.6811 16.0629 48.6779C19.3439 48.6685 22.625 48.6685 25.906 48.6779C26.9485 48.6779 27.6029 49.4291 27.703 50.4244C27.822 51.5824 27.4745 52.3617 26.4382 52.9595C25.5209 53.4884 24.7007 54.1895 23.8741 54.8624C23.4484 55.2066 23.0007 55.3819 22.4653 55.432C19.2594 55.7387 16.6452 57.1878 14.4099 59.6728C14.388 59.3692 14.3629 59.1971 14.3629 59.0218C14.3629 56.133 14.3567 53.2443 14.3629 50.3555V50.3586ZM20.9907 86.8955C20.9907 87.2242 20.9062 87.3493 20.5555 87.3462C19.3314 87.3243 18.1073 87.3713 16.8863 87.3243C15.49 87.2711 14.4475 86.2132 14.3786 84.8299C14.341 84.0506 14.3817 83.2681 14.3504 82.4888C14.3347 82.1039 14.4756 82.0068 14.8388 82.0131C15.8031 82.035 16.7642 82.0194 17.7285 82.0194C18.6927 82.0194 19.6038 82.0319 20.5399 82.0131C20.8686 82.0068 20.9938 82.0913 20.9907 82.445C20.9719 83.9285 20.9751 85.412 20.9907 86.8955ZM20.9907 78.8739C21.0001 79.2526 20.8686 79.3591 20.4992 79.3559C18.1605 79.3403 15.8219 79.3403 13.4801 79.3559C13.1075 79.3559 12.9854 79.2464 12.9917 78.8708C13.0136 77.8568 13.0198 76.8427 12.9917 75.8318C12.9791 75.4093 13.1263 75.3091 13.5239 75.3154C14.6917 75.3404 15.8626 75.3248 17.0334 75.3248C18.2043 75.3248 19.322 75.3404 20.4648 75.3154C20.8686 75.306 21.0064 75.4187 20.9938 75.8349C20.9657 76.8459 20.9719 77.8599 20.9938 78.8739H20.9907ZM47.6866 71.2373C47.5802 70.5237 47.0041 69.9885 46.3153 70.0042C45.5483 70.0198 45.0286 70.5832 45.0255 71.4564C45.0192 75.5939 45.0223 79.7315 45.0223 83.869C45.0223 84.7798 44.9754 85.6937 45.038 86.6013C45.0849 87.2523 44.8314 87.3525 44.2553 87.3462C40.9492 87.3212 37.6432 87.3337 34.334 87.3337C30.9997 87.3337 27.6686 87.3212 24.3344 87.3462C23.7833 87.3493 23.6425 87.1991 23.6456 86.6545C23.6675 81.7627 23.6581 76.8709 23.6581 71.9791C23.6581 71.7193 23.6612 71.4564 23.6393 71.1997C23.5798 70.5018 23.1572 70.1075 22.4997 70.0198C21.836 69.9322 21.3476 70.2452 21.1003 70.8836C21.0533 71.0026 21.0158 71.1309 20.9938 71.2561C20.9187 71.7068 21.2005 72.3672 20.8561 72.5706C20.4679 72.7991 19.8511 72.6551 19.3314 72.6551C17.8474 72.6614 16.3635 72.6582 14.8795 72.6551C14.6416 72.6551 14.3379 72.7584 14.3535 72.3139C14.4381 70.0042 14.1281 67.6756 14.5664 65.3846C15.3021 61.5413 18.7741 58.4428 22.6031 58.0985C23.0257 58.061 23.273 58.1768 23.5391 58.4679C24.7695 59.8105 26.0124 61.1438 27.2647 62.4646C28.4043 63.6664 29.6253 63.657 30.7712 62.4489C31.845 61.3159 32.9126 60.1767 33.9583 59.0156C34.2557 58.6838 34.4154 58.6713 34.719 59.0093C35.7647 60.1673 36.8448 61.2972 37.9124 62.4364C39.0457 63.6476 40.2573 63.6664 41.4126 62.4583C42.6711 61.1407 43.9141 59.8105 45.1444 58.4647C45.4168 58.1674 45.6704 58.0485 46.0868 58.0985C48.4067 58.3677 50.3258 59.3974 51.9225 61.0781C52.1886 61.3566 52.2356 61.5945 52.0696 61.9669C50.6201 65.1843 50.0472 68.5457 50.4886 72.0604C50.5481 72.533 50.4448 72.7427 49.9376 72.6645C49.7341 72.6332 49.5212 72.6614 49.3146 72.6582C48.8199 72.6582 48.2251 72.821 47.8557 72.605C47.4236 72.3515 47.7586 71.7036 47.6866 71.2342V71.2373ZM54.3645 82.5326C54.3081 83.3871 54.4365 84.2477 54.2862 85.099C54.0639 86.351 53.1091 87.2617 51.8411 87.3149C50.5951 87.3681 49.3459 87.3149 48.0967 87.34C47.7242 87.3462 47.6803 87.1803 47.6835 86.8736C47.6929 85.4183 47.7054 83.9629 47.6772 82.5076C47.6678 82.0694 47.8306 81.9975 48.2157 82.0068C49.1518 82.0319 50.0879 82.0162 51.024 82.0162C51.9601 82.0162 52.8962 82.0319 53.8323 82.0068C54.233 81.9975 54.3927 82.1101 54.3645 82.5295V82.5326ZM62.0442 84.1413C61.9346 84.4011 61.8438 84.6734 61.7249 84.9926C59.1858 83.4997 57.1947 81.5655 55.6575 79.1525C55.3726 78.7081 55.3319 78.5171 55.8954 78.2918C57.0413 77.8349 58.0494 77.9319 59.0324 78.6987C59.7525 79.2589 60.4381 79.8536 61.1269 80.4451C62.3166 81.4654 62.6578 82.6797 62.0442 84.1382V84.1413ZM73.8941 86.955C70.8134 87.6655 67.7516 87.3838 64.7523 86.3916C64.267 86.232 64.1982 86.038 64.3704 85.556C64.8055 84.3385 65.2407 83.121 64.9245 81.769C64.6991 80.8081 64.3234 79.9443 63.6566 79.2276C62.5545 78.0446 61.3429 76.9773 59.9654 76.1229C58.3718 75.1339 56.6687 75.04 54.9812 75.8318C54.2393 76.1823 54.0452 75.9507 53.8417 75.281C53.2374 73.2717 52.9306 71.2342 53.0214 69.1372C53.0308 68.9557 53.0496 68.7742 53.0746 68.5927C53.084 68.5175 53.1216 68.4487 53.1748 68.3047C54.6494 69.4033 56.2273 69.9979 58.0024 69.9948C59.3737 69.9948 60.4068 69.372 61.0173 68.1514C61.6122 66.9589 61.5245 65.754 60.698 64.7117C60.2691 64.1703 60.3567 63.9387 60.8577 63.5537C62.4856 62.3018 64.0792 61.0061 65.679 59.7166C67.5856 58.1768 68.1773 55.8138 67.2319 53.5541C67.163 53.3882 67.1004 53.2224 67.0033 52.9782C73.2022 51.9861 78.5933 53.526 82.8825 58.0579C87.5285 62.9653 88.9029 68.8649 86.846 75.2872C84.8298 81.5843 80.3497 85.4621 73.8972 86.9519L73.8941 86.955Z" fill="#2A2A2A"/>
<path d="M78.3124 65.2086C76.7929 63.8272 75.3886 63.2011 74.1531 63.0421C70.8333 62.6149 73.08 67.6875 70.8409 70.1754C70.0647 71.0379 68.3513 71.6115 67.3124 74.2086C66.1551 77.1019 68.416 78.2512 70.7649 78.6026C72.4081 78.8485 74.0299 78.1718 75.2071 76.9992C78.4954 73.7235 81.9778 68.5408 78.3124 65.2086Z" fill="#B0A273" stroke="#2A2A2A" stroke-width="3"/>
</g>
<defs>
<clipPath id="clip0_184_755">
<rect width="80" height="80" fill="white" transform="translate(10.334 10)"/>
</clipPath>
</defs>
</svg>
