<svg width="100" height="100" viewBox="0 0 100 100" fill="none" xmlns="http://www.w3.org/2000/svg">
<g clip-path="url(#clip0_184_708)">
<rect x="38.1875" y="52.25" width="23.625" height="4.5" fill="#B0A273"/>
<rect x="38.1875" y="62.375" width="23.625" height="4.5" fill="#B0A273"/>
<circle cx="50" cy="32" r="4.5" fill="#B0A273"/>
<path d="M61.25 79.25H29.1875L28.625 83.75L30.3125 87.125L35.9375 90.5L61.25 89.9375V79.25Z" fill="#B0A273"/>
<path d="M87.763 70.2058C84.991 70.198 82.2189 70.1862 79.4508 70.2176C78.792 70.2254 78.5411 70.0882 78.5686 69.3708C78.6274 67.842 78.5686 66.3054 78.5921 64.7726C78.6078 63.8553 78.1804 63.479 77.2864 63.4908C75.82 63.5104 74.3497 63.4398 72.8872 63.5182C72.0481 63.5653 71.8952 63.2987 71.8952 62.5069C71.9266 52.597 71.9227 42.6833 71.8991 32.7734C71.8991 32.1031 72.0756 31.6288 72.5578 31.1544C77.3492 26.3994 82.117 21.6248 86.8887 16.8502C87.9042 15.835 87.9081 15.5174 86.92 14.5257C85.7712 13.3693 84.6146 12.2168 83.4618 11.0682C82.3836 9.99019 82.1522 9.99019 81.0818 11.0564C77.7138 14.4198 74.3536 17.7911 70.9777 21.1505C70.7307 21.3975 70.5543 21.9228 70.0524 21.2799C68.0645 18.7319 65.3826 17.7127 62.1871 17.7323C55.2118 17.7754 48.2327 17.7323 41.2574 17.7636C40.4301 17.7675 40.2262 17.5323 40.2576 16.7326C40.3203 15.0706 40.3086 13.4085 40.2576 11.7464C40.1321 7.90474 37.1522 5.01567 33.3255 5.00783C26.2208 4.99999 19.1122 4.99999 12.0037 5.00783C8.06711 5.01567 5.02058 8.06546 5.00882 12.0051C4.99706 15.8193 4.99706 19.6335 5.00882 23.4477C5.02058 27.3951 8.03967 30.4136 12.0037 30.4371C14.8385 30.4567 17.6772 30.4841 20.512 30.4136C21.453 30.39 21.6765 30.6174 21.6726 31.566C21.6255 38.9671 21.6491 46.3681 21.6491 53.7691C21.6491 55.2626 21.8608 55.4782 23.3115 55.4782C24.4525 55.4782 25.5974 55.5292 26.7344 55.4626C27.5892 55.4116 27.8872 55.6115 27.8754 56.5523C27.8166 60.9859 27.848 65.4194 27.848 69.853C27.848 73.9298 27.8441 78.0027 27.848 82.0796C27.848 82.8283 27.8323 83.577 27.9931 84.3179C28.9615 88.7201 32.408 91.4876 37.0425 91.4994C44.7705 91.519 52.4986 91.5112 60.2227 91.4916C60.7913 91.4916 61.1559 91.617 61.5009 92.1109C62.8458 94.0239 64.7278 94.9843 67.0686 94.9882C74.0791 94.9961 81.0897 94.9961 88.0963 94.9882C92.0446 94.9843 94.9814 92.0208 94.9931 88.0576C95.001 84.5374 94.9931 81.0133 94.9931 77.4931C94.9931 73.0674 92.1623 70.2136 87.7552 70.2019L87.763 70.2058ZM72.0403 65.6429C72.5029 65.1019 73.5655 65.4822 74.3654 65.4743C76.6238 65.4469 76.6238 65.4626 76.6238 67.9479C76.5611 68.579 76.9531 69.5864 76.4748 70.0608C76.0004 70.5312 74.9927 70.1901 74.2242 70.198C71.9187 70.2176 71.9148 70.2058 71.9226 67.9087C71.9226 67.1325 71.656 66.1015 72.0442 65.6429H72.0403ZM81.619 13.283C82.1209 12.7773 82.4149 12.6833 82.9011 13.2752C83.4383 13.9259 84.0539 14.5218 84.693 15.0745C85.1988 15.5096 85.2145 15.7644 84.7126 16.2622C80.2663 20.6605 75.8553 25.0941 71.4325 29.5159C68.2998 32.648 65.1513 35.7644 62.0499 38.9279C61.2735 39.7197 60.4462 40.296 59.3641 40.5625C58.4583 40.786 57.5761 41.0956 56.5057 41.421C56.9723 39.951 57.3997 38.6652 57.7839 37.3599C57.8976 36.9796 58.1643 36.764 58.4152 36.517C66.1511 28.775 73.8949 21.0408 81.619 13.283ZM54.263 38.9396C54.9335 39.312 55.1099 39.6609 54.7923 40.3744C54.5022 41.0212 54.3179 41.7189 54.1414 42.4089C53.8474 43.5339 54.4473 44.0945 55.5686 43.773C56.2234 43.5849 56.8665 43.3653 57.5173 43.1733C57.7604 43.1027 58.0545 42.9851 58.1643 43.3457C58.3799 44.0592 58.6426 44.7687 58.7485 45.4978C58.8269 46.0427 58.2897 45.8154 58.031 45.8193C55.2942 45.8389 52.5574 45.831 49.8206 45.831C47.0838 45.831 44.4765 45.8075 41.8063 45.8467C41.1006 45.8585 40.8967 45.6742 41.0457 44.9647C42.2808 39.0729 48.9972 36.0192 54.263 38.9396ZM45.9742 31.9306C45.9899 29.8216 47.7112 28.1007 49.8167 28.0851C52.0006 28.0694 53.7258 29.7589 53.7297 31.9267C53.7376 34.0984 52.0163 35.8506 49.8716 35.8546C47.7504 35.8585 45.9546 34.0513 45.9742 31.9345V31.9306ZM27.848 41.9659C27.848 45.5488 27.8362 49.1317 27.8597 52.7146C27.8637 53.3301 27.7343 53.5849 27.0638 53.5378C26.1894 53.4751 25.3033 53.4712 24.429 53.5378C23.6958 53.5966 23.5977 53.2987 23.6017 52.6558C23.6252 45.5566 23.6252 38.4535 23.6017 31.3544C23.6017 30.6605 23.7154 30.3508 24.4878 30.4253C25.2955 30.5037 26.1228 30.5076 26.9266 30.4253C27.7578 30.3391 27.8676 30.6958 27.8637 31.4132C27.8323 34.9294 27.848 38.4496 27.848 41.9659ZM22.6332 28.481C19.1475 28.481 15.6579 28.4888 12.1723 28.481C9.09046 28.4731 6.97711 26.3524 6.96926 23.2595C6.96142 19.5747 6.96142 15.8938 6.96926 12.2089C6.97711 9.06115 9.08654 6.96393 12.2507 6.96001C19.1946 6.95217 26.1346 6.95217 33.0784 6.96001C36.2034 6.96001 38.2854 9.01411 38.305 12.1384C38.3285 15.8546 38.3285 19.5708 38.305 23.2869C38.2854 26.4622 36.2073 28.4771 33 28.481C29.5457 28.481 26.0914 28.481 22.6332 28.481ZM59.9757 89.5394C59.8463 89.5355 59.7169 89.5394 59.5836 89.5394C51.9575 89.5394 44.3314 89.5551 36.7092 89.5276C33.3451 89.5159 30.6514 87.305 29.9417 84.0239C29.6712 82.7773 29.8437 81.4916 29.8163 80.2215C29.8006 79.5315 30.3299 79.7707 30.6553 79.7707C35.4467 79.7589 40.2341 79.7628 45.0254 79.7628C49.8167 79.7628 54.5414 79.7785 59.2974 79.7471C60.0071 79.7432 60.2267 79.8883 60.2306 80.6448C60.2423 83.4751 60.0659 86.3132 60.3286 89.1395C60.356 89.4531 60.2659 89.5551 59.9757 89.5433V89.5394ZM60.2345 76.9757C60.207 77.6774 60.0149 77.8107 59.3562 77.8067C49.801 77.7832 40.2497 77.7832 30.6945 77.8067C29.9535 77.8067 29.7927 77.6186 29.7967 76.8973C29.828 70.049 29.828 63.2046 29.7967 56.3563C29.7967 55.5998 30.0084 55.439 30.7181 55.4626C32.3805 55.5174 34.043 55.5057 35.7054 55.4626C36.3171 55.4469 36.5367 55.5802 36.5249 56.2466C36.4935 57.9988 36.6033 58.0772 38.3246 58.0772C46.0527 58.0772 53.7807 58.0772 61.5088 58.0772C63.0536 58.0772 63.2379 57.8891 63.2418 56.3289C63.2418 54.9922 63.2536 53.6554 63.2418 52.3187C63.23 51.2211 62.9438 50.9388 61.8421 50.9388C53.8866 50.9349 45.9311 50.9349 37.9756 50.9388C36.7445 50.9388 36.4582 51.1858 36.5327 52.4363C36.5876 53.3222 36.3328 53.5849 35.4349 53.5417C33.8077 53.4633 32.1727 53.4869 30.5455 53.5339C29.9182 53.5535 29.8045 53.3457 29.8045 52.7656C29.8241 45.5919 29.828 38.4183 29.8006 31.2446C29.8006 30.5116 30.0476 30.4175 30.6867 30.4136C32.0825 30.4057 33.4862 30.5743 34.8742 30.2568C37.9129 29.5708 40.1203 26.9914 40.2497 23.8906C40.2968 22.7185 40.2929 21.5425 40.2693 20.3704C40.2615 19.8726 40.4027 19.6884 40.932 19.6923C48.3346 19.708 55.7333 19.6766 63.1359 19.7236C65.3395 19.7354 67.1156 20.7703 68.5272 22.4598C68.9467 22.9616 68.8996 23.2595 68.437 23.7181C64.5906 27.5245 60.7756 31.3661 56.937 35.1842C56.443 35.6742 55.9921 36.1721 55.8745 36.8855C55.7843 37.4422 55.5451 37.4539 55.106 37.1756C54.6708 36.9012 54.1846 36.713 53.6592 36.4582C56.2901 33.6711 56.3763 30.1509 53.9415 27.7636C51.6791 25.5449 48.0249 25.5449 45.7586 27.7793C43.5903 29.9196 43.2022 33.7377 46.0958 36.4543C44.8803 37.0306 43.708 37.6225 42.7121 38.5045C40.3203 40.6213 39.0774 43.2869 38.9088 46.4622C38.8617 47.3873 39.2225 47.7832 40.1792 47.7832C46.6369 47.795 53.0906 47.7911 59.5483 47.7871C60.4423 47.7871 60.8305 47.3559 60.7991 46.4426C60.7599 45.2587 60.5678 44.1062 60.1208 43.0204C59.9012 42.4833 60.0737 42.2913 60.5246 42.2246C61.6264 42.06 62.3792 41.3818 63.1203 40.6213C65.1042 38.5947 67.1235 36.6033 69.131 34.5962C69.3505 34.3767 69.5819 34.165 69.9504 33.8122V34.8354C69.9504 44.0631 69.9387 53.2909 69.97 62.5186C69.97 63.3418 69.7701 63.5496 68.9624 63.5182C67.2686 63.4477 65.5708 63.479 63.877 63.5104C63.3634 63.5182 63.1752 63.3693 63.23 62.8597C63.2653 62.5382 63.2575 62.205 63.2144 61.8836C63.1399 61.2956 62.834 60.9271 62.1949 60.9232C61.9989 60.9232 61.8028 60.9192 61.6068 60.9192C53.7807 60.9192 45.9546 60.9192 38.1325 60.9192C36.6857 60.9192 36.5014 61.1035 36.5014 62.5421C36.5014 63.7142 36.5014 64.8902 36.5014 66.0623C36.5014 68.0184 36.5406 68.0576 38.4501 68.0576C43.3747 68.0576 48.2954 68.0576 53.22 68.0576C56.0235 68.0576 58.8269 68.0576 61.6343 68.0576C62.9909 68.0576 63.2967 67.8146 63.2104 66.4739C63.1556 65.5684 63.4692 65.4038 64.2887 65.4351C65.9159 65.5018 67.5469 65.4743 69.178 65.443C69.7348 65.4312 70.0014 65.5096 69.9622 66.1682C69.8995 67.2736 69.9191 68.3869 69.9583 69.4923C69.9779 70.0294 69.8367 70.2489 69.2643 70.2097C68.5821 70.1627 67.8959 70.1901 67.2097 70.2019C63.2144 70.2724 60.3835 72.989 60.2267 76.9718L60.2345 76.9757ZM38.6069 53.0792C39.0186 52.5657 40.0694 52.9224 40.8379 52.9185C47.323 52.9028 53.8082 52.9263 60.2933 52.891C61.1206 52.8871 61.3127 53.1223 61.2931 53.922C61.2382 56.1172 61.2775 56.1172 59.117 56.1172C56.0195 56.1172 52.926 56.1172 49.8285 56.1172C46.3075 56.1172 42.7905 56.1015 39.2695 56.129C38.6579 56.1329 38.3834 56.0114 38.4501 55.341C38.5246 54.5688 38.2187 53.5613 38.603 53.0792H38.6069ZM61.2892 63.6789C61.2892 66.0976 61.3167 66.0976 58.9484 66.0976C52.4319 66.0976 45.9115 66.0819 39.395 66.1172C38.6187 66.1211 38.4305 65.9134 38.4422 65.1568C38.4893 62.8949 38.454 62.8949 40.7085 62.8949H49.801C53.3533 62.8949 56.9057 62.9106 60.458 62.8793C61.0853 62.8753 61.2892 63.0204 61.2892 63.6829V63.6789ZM88.0257 93.04C84.5401 93.0517 81.0544 93.04 77.5687 93.04C74.0831 93.04 70.7268 93.0439 67.3078 93.04C64.2652 93.0321 62.2106 91.0251 62.1871 87.9871C62.1596 84.4041 62.1596 80.8212 62.1871 77.2344C62.2106 74.2434 64.2299 72.1933 67.2137 72.1815C74.1536 72.1541 81.0936 72.1541 88.0336 72.1815C91.0331 72.1933 93.0366 74.2552 93.0445 77.2383C93.0562 80.8212 93.0562 84.4042 93.0445 87.991C93.0366 90.9663 90.9899 93.0282 88.0296 93.04H88.0257Z" fill="#030000"/>
<line x1="70.25" y1="79.25" x2="84.875" y2="79.25" stroke="#5E563D" stroke-width="2.25" stroke-linecap="round"/>
<line x1="15.125" y1="14" x2="29.75" y2="14" stroke="#5E563D" stroke-width="2.25" stroke-linecap="round"/>
<line x1="70.25" y1="86" x2="84.875" y2="86" stroke="#5E563D" stroke-width="2.25" stroke-linecap="round"/>
<line x1="15.125" y1="20.75" x2="29.75" y2="20.75" stroke="#5E563D" stroke-width="2.25" stroke-linecap="round"/>
</g>
<defs>
<clipPath id="clip0_184_708">
<rect width="90" height="90" fill="white" transform="translate(5 5)"/>
</clipPath>
</defs>
</svg>
