<svg xmlns="http://www.w3.org/2000/svg" width="41" height="40" viewBox="0 0 41 40" fill="none">
<path d="M35.1946 21.7667C35.6628 21.2979 35.9258 20.6625 35.9258 20C35.9258 19.3375 35.6628 18.7021 35.1946 18.2333L25.768 8.80165C25.299 8.33266 24.6629 8.06918 23.9996 8.06918C23.3364 8.06918 22.7003 8.33266 22.2313 8.80165C21.7623 9.27064 21.4988 9.90673 21.4988 10.57C21.4988 11.2332 21.7623 11.8693 22.2313 12.3383L27.3913 17.5L8.16631 17.5C7.50327 17.5 6.86739 17.7634 6.39855 18.2322C5.92971 18.7011 5.66631 19.3369 5.66631 20C5.66631 20.663 5.92971 21.2989 6.39855 21.7678C6.86739 22.2366 7.50327 22.5 8.16631 22.5L27.3913 22.5L22.2313 27.66C21.9991 27.8922 21.8149 28.1679 21.6892 28.4713C21.5635 28.7747 21.4988 29.0999 21.4988 29.4283C21.4988 29.7567 21.5635 30.0819 21.6892 30.3853C21.8149 30.6887 21.9991 30.9644 22.2313 31.1967C22.4635 31.4289 22.7392 31.6131 23.0426 31.7388C23.346 31.8644 23.6712 31.9291 23.9996 31.9291C24.3281 31.9291 24.6533 31.8644 24.9567 31.7388C25.2601 31.6131 25.5358 31.4289 25.768 31.1967L35.1946 21.7667Z" fill="#7A4CEA"/>
</svg>
