<svg width="40" height="40" viewBox="0 0 40 40" fill="none" xmlns="http://www.w3.org/2000/svg">
<path d="M34.5286 21.7667C34.9968 21.2979 35.2598 20.6625 35.2598 20C35.2598 19.3375 34.9968 18.7021 34.5286 18.2333L25.102 8.80165C24.633 8.33266 23.9969 8.06918 23.3336 8.06918C22.6704 8.06918 22.0343 8.33266 21.5653 8.80165C21.0963 9.27064 20.8328 9.90673 20.8328 10.57C20.8328 11.2332 21.0963 11.8693 21.5653 12.3383L26.7253 17.5L7.5003 17.5C6.83726 17.5 6.20138 17.7634 5.73254 18.2322C5.26369 18.7011 5.0003 19.3369 5.0003 20C5.0003 20.663 5.26369 21.2989 5.73254 21.7678C6.20138 22.2366 6.83726 22.5 7.5003 22.5L26.7253 22.5L21.5653 27.66C21.3331 27.8922 21.1489 28.1679 21.0232 28.4713C20.8975 28.7747 20.8328 29.0999 20.8328 29.4283C20.8328 29.7567 20.8975 30.0819 21.0232 30.3853C21.1489 30.6887 21.3331 30.9644 21.5653 31.1967C21.7975 31.4289 22.0732 31.6131 22.3766 31.7388C22.68 31.8644 23.0052 31.9291 23.3336 31.9291C23.662 31.9291 23.9872 31.8644 24.2906 31.7388C24.5941 31.6131 24.8697 31.4289 25.102 31.1967L34.5286 21.7667Z" fill="#B0A273"/>
</svg>
