<svg width="40" height="40" viewBox="0 0 40 40" fill="none" xmlns="http://www.w3.org/2000/svg">
<path d="M29.5168 21.1853C29.8262 20.8709 30 20.4448 30 20.0006C30 19.5563 29.8262 19.1302 29.5168 18.8159L23.2862 12.4912C22.9762 12.1767 22.5558 12 22.1174 12C21.679 12 21.2586 12.1767 20.9486 12.4912C20.6387 12.8057 20.4645 13.2322 20.4645 13.677C20.4645 14.1218 20.6387 14.5483 20.9486 14.8628L24.3591 18.3241L11.6524 18.3241C11.2141 18.3241 10.7939 18.5007 10.484 18.8151C10.1741 19.1295 10 19.5559 10 20.0006C10 20.4452 10.1741 20.8716 10.484 21.186C10.7939 21.5004 11.2141 21.677 11.6524 21.677L24.3591 21.677L20.9486 25.1372C20.7952 25.2929 20.6734 25.4778 20.5903 25.6813C20.5073 25.8847 20.4645 26.1028 20.4645 26.323C20.4645 26.5432 20.5073 26.7613 20.5903 26.9648C20.6734 27.1682 20.7952 27.3531 20.9486 27.5088C21.1021 27.6645 21.2843 27.7881 21.4849 27.8723C21.6854 27.9566 21.9004 28 22.1174 28C22.3345 28 22.5494 27.9566 22.75 27.8723C22.9505 27.7881 23.1327 27.6645 23.2862 27.5088L29.5168 21.1853Z" fill="#B0A273"/>
</svg>
