<svg xmlns="http://www.w3.org/2000/svg" width="20" height="16" viewBox="0 0 20 16" fill="none">
  <path d="M19.5168 9.18525C19.8262 8.87092 20 8.44482 20 8.00056C20 7.5563 19.8262 7.1302 19.5168 6.81587L13.2862 0.491178C12.9762 0.176682 12.5558 -3.30083e-07 12.1174 -3.44559e-07C11.679 -3.59034e-07 11.2586 0.176682 10.9486 0.491178C10.6387 0.805674 10.4645 1.23222 10.4645 1.67699C10.4645 2.12175 10.6387 2.5483 10.9486 2.8628L14.3591 6.32411L1.65238 6.32411C1.21414 6.32411 0.793852 6.50073 0.48397 6.81513C0.174091 7.12952 1.57707e-06 7.55594 1.55763e-06 8.00056C1.5382e-06 8.44518 0.174091 8.87159 0.48397 9.18599C0.793851 9.50038 1.21414 9.67701 1.65238 9.67701L14.3591 9.67701L10.9486 13.1372C10.7952 13.2929 10.6734 13.4778 10.5903 13.6813C10.5073 13.8847 10.4645 14.1028 10.4645 14.323C10.4645 14.5432 10.5073 14.7613 10.5903 14.9648C10.6734 15.1682 10.7952 15.3531 10.9486 15.5088C11.1021 15.6645 11.2843 15.7881 11.4849 15.8723C11.6854 15.9566 11.9004 16 12.1174 16C12.3345 16 12.5494 15.9566 12.75 15.8723C12.9505 15.7881 13.1327 15.6645 13.2862 15.5088L19.5168 9.18525Z" fill="#7A4CEA"/>
</svg>