<svg width="40" height="40" viewBox="0 0 40 40" fill="none" xmlns="http://www.w3.org/2000/svg">
<path d="M19.25 22.0007V32.0007H14.25C13.2554 32.0007 12.3016 31.6056 11.5983 30.9024C10.8951 30.1991 10.5 29.2453 10.5 28.2507V23.2507C10.5 22.9192 10.6317 22.6013 10.8661 22.3668C11.1005 22.1324 11.4185 22.0007 11.75 22.0007H19.25ZM29.25 22.0007C29.5815 22.0007 29.8995 22.1324 30.1339 22.3668C30.3683 22.6013 30.5 22.9192 30.5 23.2507V28.2507C30.5 29.2453 30.1049 30.1991 29.4017 30.9024C28.6984 31.6056 27.7446 32.0007 26.75 32.0007H21.75V22.0007H29.25ZM26.125 7.00073C26.8631 7.00058 27.5893 7.18719 28.2359 7.54319C28.8826 7.8992 29.4286 8.41301 29.8232 9.03682C30.2178 9.66062 30.4482 10.3741 30.4929 11.1109C30.5376 11.8477 30.3951 12.5838 30.0788 13.2507H30.5C31.163 13.2507 31.7989 13.5141 32.2678 13.983C32.7366 14.4518 33 15.0877 33 15.7507V17.0007C33 17.6638 32.7366 18.2997 32.2678 18.7685C31.7989 19.2373 31.163 19.5007 30.5 19.5007H21.75V13.2507H19.25V19.5007H10.5C9.83696 19.5007 9.20107 19.2373 8.73223 18.7685C8.26339 18.2997 8 17.6638 8 17.0007V15.7507C8 15.0877 8.26339 14.4518 8.73223 13.983C9.20107 13.5141 9.83696 13.2507 10.5 13.2507H10.9212C10.6436 12.6647 10.4997 12.0242 10.5 11.3757C10.5 8.95948 12.4587 7.00073 14.8537 7.00073C17.0475 6.96323 18.9937 8.36573 20.33 10.6682L20.5 10.972C21.7913 8.57948 23.7 7.07948 25.8638 7.00323L26.125 7.00073ZM14.875 9.50073C14.3777 9.50073 13.9008 9.69828 13.5492 10.0499C13.1975 10.4015 13 10.8785 13 11.3757C13 11.873 13.1975 12.3499 13.5492 12.7016C13.9008 13.0532 14.3777 13.2507 14.875 13.2507H18.8037C17.8775 10.8695 16.3675 9.47573 14.875 9.50073ZM26.1038 9.50073C24.6287 9.47573 23.1225 10.8707 22.1963 13.2507H26.125C26.6223 13.2479 27.0981 13.0477 27.4477 12.694C27.7973 12.3404 27.9922 11.8624 27.9894 11.3651C27.9866 10.8678 27.7863 10.392 27.4327 10.0424C27.0791 9.69276 26.601 9.49792 26.1038 9.50073Z" fill="#B0A273"/>
</svg>
