<svg width="40" height="40" viewBox="0 0 40 40" fill="none" xmlns="http://www.w3.org/2000/svg">
<path d="M7.8125 15.3126V15.3513C7.81112 15.5928 7.72389 15.8261 7.56641 16.0093V16.0122C7.25 16.386 6.875 17.0552 6.875 18.1251C6.875 19.0948 7.18555 19.7792 7.55938 20.2292C7.72339 20.4288 7.81288 20.6792 7.8125 20.9376C7.8125 21.4349 8.01004 21.9118 8.36167 22.2634C8.71331 22.615 9.19022 22.8126 9.6875 22.8126H10.1562C10.2806 22.8126 10.3998 22.7632 10.4877 22.6753C10.5756 22.5874 10.625 22.4682 10.625 22.3438V13.9063C10.625 13.782 10.5756 13.6628 10.4877 13.5749C10.3998 13.487 10.2806 13.4376 10.1562 13.4376H9.6875C9.19022 13.4376 8.71331 13.6351 8.36167 13.9868C8.01004 14.3384 7.8125 14.8153 7.8125 15.3126ZM31.4949 15.9307L31.4404 15.9208C31.3869 15.9106 31.3385 15.882 31.3038 15.8399C31.269 15.7979 31.25 15.7451 31.25 15.6905V8.6329C31.25 7.89227 30.7584 7.22665 30.026 6.97352C29.3275 6.7327 28.5998 6.92899 28.1697 7.47333C27.2548 8.56592 26.2491 9.5791 25.1633 10.502C23.7787 11.6739 22.4539 12.5089 21.2375 12.9811C21.1488 13.015 21.0725 13.0749 21.0186 13.1531C20.9647 13.2312 20.9358 13.3239 20.9357 13.4188V22.5196C20.9359 22.7029 20.9898 22.8821 21.0907 23.0351C21.1916 23.188 21.3351 23.3081 21.5035 23.3804C22.6367 23.8661 23.8613 24.6595 25.1363 25.7405C26.2302 26.6719 27.2432 27.6943 28.1645 28.7968C28.312 28.9819 28.5004 29.1304 28.7149 29.2308C28.9293 29.3311 29.1641 29.3805 29.4008 29.3751C29.6088 29.3742 29.8154 29.3398 30.0125 29.2731C30.7643 29.0235 31.25 28.3819 31.25 27.6407V20.5585C31.25 20.5032 31.2697 20.4496 31.3054 20.4074C31.3411 20.3651 31.3906 20.3369 31.4451 20.3276L31.4949 20.3194C32.0586 20.1665 33.125 19.512 33.125 18.1251C33.125 16.7382 32.0586 16.0837 31.4949 15.9307ZM19.0625 23.7501V13.9063C19.0625 13.782 19.0131 13.6628 18.9252 13.5749C18.8373 13.487 18.7181 13.4376 18.5938 13.4376H12.9688C12.8444 13.4376 12.7252 13.487 12.6373 13.5749C12.5494 13.6628 12.5 13.782 12.5 13.9063V31.7188C12.5 32.0918 12.6482 32.4495 12.9119 32.7132C13.1756 32.9769 13.5333 33.1251 13.9062 33.1251H16.9795C17.2716 33.1275 17.5604 33.0631 17.8238 32.9366C18.0871 32.8102 18.3181 32.6251 18.4988 32.3956C18.6842 32.158 18.8088 31.8789 18.862 31.5823C18.9152 31.2857 18.8953 30.9806 18.8041 30.6934C18.7092 30.3899 18.5914 30.0489 18.466 29.6862C18.0025 28.3444 17.3914 27.5141 17.2285 25.6245C17.7186 25.6138 18.1849 25.4116 18.5277 25.0612C18.8705 24.7109 19.0625 24.2402 19.0625 23.7501Z" fill="#B0A273"/>
</svg>
