<svg xmlns="http://www.w3.org/2000/svg" width="40" height="41" viewBox="0 0 40 41" fill="none">
<path fill-rule="evenodd" clip-rule="evenodd" d="M5.50009 8.83329C5.50009 8.18896 6.02243 7.66663 6.66676 7.66663H33.3334C33.9778 7.66663 34.5001 8.18896 34.5001 8.83329C34.5001 9.47762 33.9778 9.99996 33.3334 9.99996H6.66676C6.02243 9.99996 5.50009 9.47762 5.50009 8.83329Z" fill="white"/>
<path fill-rule="evenodd" clip-rule="evenodd" d="M5.50009 20.5C5.50009 19.8556 6.02243 19.3333 6.66676 19.3333H33.3334C33.9778 19.3333 34.5001 19.8556 34.5001 20.5C34.5001 21.1443 33.9778 21.6666 33.3334 21.6666H6.66676C6.02243 21.6666 5.50009 21.1443 5.50009 20.5Z" fill="white"/>
<path fill-rule="evenodd" clip-rule="evenodd" d="M5.50009 32.1666C5.50009 31.5223 6.02243 30.9999 6.66676 30.9999H33.3334C33.9778 30.9999 34.5001 31.5223 34.5001 32.1666C34.5001 32.8109 33.9778 33.3333 33.3334 33.3333H6.66676C6.02243 33.3333 5.50009 32.8109 5.50009 32.1666Z" fill="white"/>
</svg>
