<svg width="81" height="80" viewBox="0 0 81 80" fill="none" xmlns="http://www.w3.org/2000/svg">
<g clip-path="url(#clip0_184_756)">
<path d="M33.501 37.5L30.001 39.5V43.5L35.001 46.5L38.001 47.5L44.501 50.5L46.001 48V39.5L44.501 37.5H33.501Z" fill="#C1A7FF"/>
<path d="M15.501 37.5L19.001 39.5V43.5L14.001 46.5L11.001 47.5L4.50098 50.5L3.00098 48V39.5L4.50098 37.5H15.501Z" fill="#C1A7FF"/>
<path d="M48.501 66.5L44.501 67.5L45.501 70L48.001 74.5L53.001 76.5L54.001 71.5L48.501 66.5Z" fill="#C1A7FF"/>
<path d="M56.4403 46.5147L56.0674 43.5311C56.0259 43.1993 55.8213 42.9102 55.5223 42.7607L54.5395 42.2693C54.2082 42.1036 53.8125 42.1347 53.511 42.35L47.1844 46.869C47.0636 46.9552 46.9636 47.0673 46.8915 47.1971L42.5082 55.087C42.2317 55.5847 42.4259 56.2125 42.9351 56.4671L46.7216 58.3603C46.9035 58.4513 47.1089 58.4846 47.3102 58.4558L49.4033 58.1568C49.9904 58.0729 50.3759 57.4996 50.2321 56.9243L49.6383 54.5493C49.5531 54.2085 49.653 53.848 49.9013 53.5996L51.501 52L56.1551 47.3458C56.3733 47.1276 56.4786 46.8209 56.4403 46.5147Z" fill="#C1A7FF"/>
<path d="M76.0144 47.1627C72.7396 43.2662 68.5381 40.9126 63.5039 40.2147C57.4647 39.3759 52.1174 41.0785 47.3712 45.0783C47.3712 43.3945 47.3805 41.8421 47.3712 40.2929C47.3492 37.6921 45.6712 36.0239 43.0632 35.9957C42.3338 35.9863 41.6043 35.9957 40.8749 35.9957H35.3647C36.8581 33.9739 37.6909 31.8237 38.004 29.4796C38.0353 29.2354 38.1386 29.1447 38.3765 29.0664C41.2568 28.14 42.8284 24.9007 41.5699 21.9305C41.429 21.5957 41.4728 21.4642 41.8172 21.386C42.0176 21.3422 42.1992 21.2201 42.3964 21.1606C43.6174 20.7944 44.4408 20.059 44.638 18.7476C44.8352 17.4612 44.2122 16.5661 43.2511 15.815C42.0614 14.8886 40.8905 13.934 39.7071 13.0013C39.369 12.7353 39.1655 12.438 39.0809 11.9841C38.8148 10.5851 38.4423 9.20492 38.1699 7.80591C37.1649 2.62927 32.929 -0.165609 28.4583 0.00652793C25.7001 0.11294 22.9357 0.0159172 20.1775 0.0284363C16.0731 0.0472149 12.4602 2.86401 11.4521 6.84507C11.0138 8.57896 10.6256 10.3254 10.2561 12.0749C10.1747 12.4661 10.0057 12.7228 9.70513 12.9575C8.41839 13.9716 7.13165 14.9856 5.8637 16.0247C3.96647 17.5802 4.39225 20.1873 6.67143 21.0699C6.95946 21.1825 7.24749 21.3109 7.54804 21.3828C7.91121 21.4705 7.91434 21.6364 7.78598 21.9462C6.47733 25.0947 8.26811 28.1963 11.0232 29.0414C11.283 29.1228 11.4208 29.2229 11.449 29.5015C11.6681 31.855 12.5666 33.9489 14.0068 35.9926C11.3237 35.9926 8.77529 35.9738 6.22373 35.9989C3.70974 36.0239 2.05045 37.642 2.02227 40.1364C1.98783 43.1566 2.01601 46.1769 2.01288 49.194C2.01288 50.1611 2.24455 51.0624 2.88636 51.7948C3.16812 52.1172 3.12429 52.3519 2.97715 52.6805C2.40109 53.9731 2.0661 55.3314 2.04419 56.7492C2.01601 58.624 2.00975 60.4987 2.01914 62.3703C2.01914 62.7928 1.92522 63.0901 1.58084 63.3718C0.939032 63.8945 0.663526 64.6081 0.669788 65.4375C0.67918 66.6612 0.688572 67.8849 0.669788 69.1087C0.651003 70.0288 0.945294 70.7987 1.66223 71.3746C1.94087 71.5968 2.02227 71.8347 2.01914 72.1727C2.00975 73.1367 1.98783 74.1007 2.05358 75.0615C2.23829 77.8564 4.50495 79.9909 7.30697 79.994C18.872 80.0034 30.4369 80.0034 42.0019 79.994C44.4408 79.994 46.4507 78.4479 47.1238 76.0912C47.2271 75.7313 47.2929 75.3588 47.3806 74.9645C56.7884 82.9798 69.2113 80.5511 75.6856 73.2431C82.1632 65.9351 82.3854 54.743 76.0175 47.1627H76.0144ZM53.8706 44.0799C54.528 43.7795 54.8505 43.9266 55.0791 44.5682C55.2012 44.9124 55.3107 45.2505 55.3514 45.6135C55.2982 46.4648 54.9476 47.1502 54.2745 47.6823C52.6652 48.9561 51.0717 50.2518 49.4625 51.5225C47.7531 52.8746 47.5214 54.4019 48.7988 56.1702C48.9866 56.43 49.0774 56.6741 48.9365 56.9589C48.7956 57.2406 48.5389 57.3501 48.2258 57.3345C46.5979 57.2594 45.3143 56.4957 44.2341 55.3314C43.9993 55.0779 44.1621 54.8557 44.2435 54.6147C45.9154 49.701 49.1651 46.2332 53.8706 44.0799ZM38.1511 38.6748C39.7634 38.6748 41.3789 38.6654 42.9912 38.6748C44.2185 38.6842 44.6818 39.1505 44.6881 40.3805C44.6975 42.7717 44.6725 45.1659 44.7038 47.5571C44.71 48.0954 44.4001 48.424 44.1277 48.7871C43.8772 49.1188 43.7364 48.7527 43.5955 48.6275C41.8704 47.0532 39.8981 45.8295 37.5719 45.6229C35.5964 45.4476 34.3692 44.1895 32.929 43.1817C32.8445 43.1222 32.7662 43.044 32.6754 43.0033C31.1758 42.3898 31.229 41.1192 31.3323 39.8328C31.3668 39.3884 32.4375 38.6748 33.0793 38.6717C34.7699 38.6623 36.4605 38.6717 38.1542 38.6717L38.1511 38.6748ZM38.0134 65.7097C38.0102 65.3968 38.1323 65.2872 38.4266 65.3248C38.4767 65.331 38.5299 65.3248 38.5831 65.3248C39.4691 65.3248 40.4772 65.065 41.2036 65.403C41.9456 65.7504 41.8579 66.921 42.2242 67.694C42.4621 68.1979 43.0413 68.8583 42.794 69.2057C42.5028 69.6126 41.6951 69.2996 41.1128 69.3434C40.9062 69.3591 40.6964 69.3434 40.4898 69.3434C39.8135 69.3434 39.1373 69.3278 38.461 69.3497C38.1167 69.3622 38.0134 69.2401 38.0165 68.9021C38.0321 67.8349 38.0321 66.7707 38.0165 65.7035L38.0134 65.7097ZM20.9414 42.2114C20.4185 41.8234 20.7848 41.3007 20.622 40.7029C22.441 41.2537 24.1567 41.4227 25.9099 41.2757C26.5861 41.2193 27.2404 41.0597 27.901 40.9408C28.139 40.8969 28.499 40.6247 28.5835 40.8719C28.715 41.2537 28.8622 41.8077 28.4865 42.1113C27.2937 43.069 26.0476 43.9579 24.8266 44.8811C24.6075 45.047 24.4948 44.8655 24.3695 44.7716C23.2237 43.9234 22.0841 43.0596 20.9382 42.2114H20.9414ZM22.4003 47.1471C21.4423 48.133 20.5125 49.147 19.5701 50.1485C19.5044 50.2205 19.4198 50.2769 19.2351 50.4302C19.1631 50.3019 19.1162 50.1704 19.0285 50.0766C18.1456 49.1251 17.2721 48.1643 16.3642 47.241C16.0198 46.8905 16.1357 46.7277 16.4707 46.4898C17.3128 45.8858 18.1425 45.263 18.9565 44.6245C19.2163 44.4211 19.3948 44.3585 19.6891 44.5901C20.5406 45.2661 21.4204 45.9077 22.2939 46.5556C22.5193 46.7246 22.6915 46.8466 22.4003 47.1471ZM26.943 46.6401C27.9042 45.9327 28.859 45.216 29.8171 44.5024C29.8765 44.4586 29.9454 44.4273 30.0393 44.3741C30.1395 44.4492 30.2428 44.5243 30.343 44.6026C31.2353 45.2724 32.1213 45.9515 33.0261 46.6025C33.2797 46.784 33.3047 46.9061 33.0918 47.1283C32.1432 48.1267 31.2008 49.1314 30.2647 50.1454C30.0769 50.352 29.9517 50.3426 29.767 50.1454C28.8277 49.1376 27.8854 48.133 26.9336 47.1377C26.7614 46.9562 26.6926 46.8279 26.9399 46.6463L26.943 46.6401ZM34.3848 5.4711C35.2301 6.61347 35.4555 7.97805 35.7436 9.31759C35.9189 10.1282 36.1067 10.9325 36.2977 11.7369C36.3916 12.1375 36.329 12.3284 35.8406 12.3816C34.4224 12.5381 33.0104 12.7509 31.6016 12.9669C31.1507 13.0358 30.988 12.9419 30.9504 12.438C30.7375 9.69629 30.4839 6.95461 30.2209 4.21607C30.1771 3.76538 30.0299 3.32408 29.911 2.80141C31.8333 3.02362 33.2734 3.97194 34.3817 5.46797L34.3848 5.4711ZM21.051 12.7729C21.3045 10.0593 21.53 7.34583 21.771 4.63232C21.8336 3.90309 22.1999 3.30217 22.8386 3.01736C24.044 2.47904 25.315 2.47904 26.5235 3.01736C27.1716 3.3053 27.5128 3.90935 27.5754 4.63545C27.7789 7.01408 28.0012 9.38957 28.1828 11.7713C28.2955 13.2799 28.2705 13.283 26.7458 13.3018C26.0445 13.3112 25.3432 13.3018 24.6419 13.3018C24.6419 13.2893 24.6419 13.2799 24.6419 13.2674C23.6025 13.2674 22.5631 13.2674 21.5237 13.2674C21.1824 13.2674 21.0134 13.186 21.0541 12.7697L21.051 12.7729ZM13.0488 11.7557C13.3712 10.3442 13.628 8.91385 14.0224 7.52423C14.6955 5.15187 16.2484 3.60576 18.6434 2.93286C18.8939 2.86401 19.1381 2.78889 19.4668 2.87027C18.897 4.46019 18.9784 6.08767 18.8093 7.67759C18.6434 9.25186 18.5307 10.8293 18.4117 12.4067C18.3804 12.8448 18.2771 13.042 17.7637 12.9575C16.3298 12.7259 14.8928 12.5319 13.4495 12.3722C12.9799 12.319 12.9642 12.1031 13.0456 11.7525L13.0488 11.7557ZM8.09905 18.7257C7.85799 18.6412 7.44786 18.6787 7.41655 18.3282C7.3915 18.0496 7.74528 17.962 7.93938 17.8024C9.00697 16.9323 10.109 16.1029 11.1484 15.1953C11.5617 14.8354 11.9624 14.7947 12.432 14.8792C17.341 15.7586 22.2845 16.1436 27.2686 15.9402C30.4651 15.8119 33.646 15.4832 36.7955 14.9105C37.359 14.8072 37.813 14.8448 38.2889 15.2579C39.3658 16.1937 40.5086 17.0575 41.6294 17.9464C42.0144 18.2499 42.1209 18.4252 41.526 18.6349C37.8881 19.9181 34.1563 20.7538 30.318 21.1199C28.4239 21.3015 26.5266 21.3672 24.2412 21.3547C18.9627 21.4486 13.4526 20.5754 8.09905 18.7194V18.7257ZM11.8966 26.547C10.2812 26.0462 9.56737 24.2935 10.2874 22.8382C10.4722 22.4626 10.66 22.3218 11.1296 22.4376C17.5821 24.0431 24.1316 24.3499 30.7312 23.7427C33.2421 23.5111 35.7248 23.076 38.1699 22.4595C38.7303 22.3186 38.9181 22.5064 39.106 22.9321C39.7259 24.3342 39.0684 26.0337 37.5688 26.4906C35.9815 26.9757 35.371 28.0305 35.2051 29.5766C34.7135 34.1742 30.5778 38.1834 25.9443 38.6185C25.5029 38.6592 25.0646 38.7061 24.6263 38.7531C19.232 38.6936 14.6955 34.6092 14.0976 29.2448C13.9442 27.8677 13.2648 26.9757 11.8935 26.5501L11.8966 26.547ZM4.69593 40.3586C4.69593 39.113 5.1311 38.6811 6.39593 38.6779C9.67695 38.6685 12.958 38.6685 16.239 38.6779C17.2815 38.6779 17.9359 39.4291 18.036 40.4244C18.155 41.5824 17.8075 42.3617 16.7712 42.9595C15.8539 43.4884 15.0337 44.1895 14.2071 44.8624C13.7814 45.2066 13.3337 45.3819 12.7983 45.432C9.59242 45.7387 6.97825 47.1878 4.74289 49.6728C4.72098 49.3692 4.69593 49.1971 4.69593 49.0218C4.69593 46.133 4.68967 43.2443 4.69593 40.3555V40.3586ZM11.3237 76.8955C11.3237 77.2242 11.2392 77.3493 10.8885 77.3462C9.66443 77.3243 8.4403 77.3713 7.21931 77.3243C5.823 77.2711 4.78046 76.2132 4.71158 74.8299C4.67401 74.0506 4.71471 73.2681 4.68341 72.4888C4.66775 72.1039 4.80864 72.0068 5.1718 72.0131C6.13607 72.035 7.09721 72.0194 8.06148 72.0194C9.02575 72.0194 9.9368 72.0319 10.8729 72.0131C11.2016 72.0068 11.3269 72.0913 11.3237 72.445C11.3049 73.9285 11.3081 75.412 11.3237 76.8955ZM11.3237 68.8739C11.3331 69.2526 11.2016 69.3591 10.8322 69.3559C8.49353 69.3403 6.15486 69.3403 3.81306 69.3559C3.4405 69.3559 3.3184 69.2464 3.32466 68.8708C3.34658 67.8568 3.35284 66.8427 3.32466 65.8318C3.31214 65.4093 3.45928 65.3091 3.85689 65.3154C5.02466 65.3404 6.19556 65.3248 7.36646 65.3248C8.53736 65.3248 9.65504 65.3404 10.7978 65.3154C11.2016 65.306 11.3394 65.4187 11.3269 65.8349C11.2987 66.8459 11.3049 67.8599 11.3269 68.8739H11.3237ZM38.0196 61.2373C37.9132 60.5237 37.3371 59.9885 36.6483 60.0042C35.8813 60.0198 35.3616 60.5832 35.3585 61.4564C35.3522 65.5939 35.3553 69.7315 35.3553 73.869C35.3553 74.7798 35.3084 75.6937 35.371 76.6013C35.418 77.2523 35.1644 77.3525 34.5883 77.3462C31.2822 77.3212 27.9762 77.3337 24.667 77.3337C21.3327 77.3337 18.0016 77.3212 14.6674 77.3462C14.1164 77.3493 13.9755 77.1991 13.9786 76.6545C14.0005 71.7627 13.9911 66.8709 13.9911 61.9791C13.9911 61.7193 13.9943 61.4564 13.9723 61.1997C13.9129 60.5018 13.4902 60.1075 12.8327 60.0198C12.169 59.9322 11.6806 60.2452 11.4333 60.8836C11.3863 61.0026 11.3488 61.1309 11.3269 61.2561C11.2517 61.7068 11.5335 62.3672 11.1891 62.5706C10.8009 62.7991 10.1841 62.6551 9.66443 62.6551C8.18045 62.6614 6.69648 62.6582 5.2125 62.6551C4.97457 62.6551 4.67088 62.7584 4.68654 62.3139C4.77107 60.0042 4.46112 57.6756 4.89943 55.3846C5.63515 51.5413 9.10715 48.4428 12.9361 48.0985C13.3587 48.061 13.606 48.1768 13.8722 48.4679C15.1025 49.8105 16.3454 51.1438 17.5977 52.4646C18.7373 53.6664 19.9583 53.657 21.1042 52.4489C22.178 51.3159 23.2456 50.1767 24.2913 49.0156C24.5887 48.6838 24.7484 48.6713 25.0521 49.0093C26.0977 50.1673 27.1778 51.2972 28.2454 52.4364C29.3787 53.6476 30.5903 53.6664 31.7456 52.4583C33.0042 51.1407 34.2471 49.8105 35.4774 48.4647C35.7498 48.1674 36.0034 48.0485 36.4198 48.0985C38.7397 48.3677 40.6588 49.3974 42.2555 51.0781C42.5216 51.3566 42.5686 51.5945 42.4027 51.9669C40.9531 55.1843 40.3802 58.5457 40.8216 62.0604C40.8811 62.533 40.7778 62.7427 40.2706 62.6645C40.0671 62.6332 39.8542 62.6614 39.6476 62.6582C39.1529 62.6582 38.5581 62.821 38.1887 62.605C37.7566 62.3515 38.0916 61.7036 38.0196 61.2342V61.2373ZM44.6975 72.5326C44.6411 73.3871 44.7695 74.2477 44.6192 75.099C44.3969 76.351 43.4421 77.2617 42.1741 77.3149C40.9281 77.3681 39.6789 77.3149 38.4297 77.34C38.0572 77.3462 38.0134 77.1803 38.0165 76.8736C38.0259 75.4183 38.0384 73.9629 38.0102 72.5076C38.0008 72.0694 38.1636 71.9975 38.5487 72.0068C39.4848 72.0319 40.4209 72.0162 41.357 72.0162C42.2931 72.0162 43.2292 72.0319 44.1653 72.0068C44.566 71.9975 44.7257 72.1101 44.6975 72.5295V72.5326ZM52.3772 74.1413C52.2676 74.4011 52.1769 74.6734 52.0579 74.9926C49.5188 73.4997 47.5277 71.5655 45.9905 69.1525C45.7056 68.7081 45.6649 68.5171 46.2284 68.2918C47.3743 67.8349 48.3824 67.9319 49.3654 68.6987C50.0855 69.2589 50.7711 69.8536 51.4599 70.4451C52.6496 71.4654 52.9908 72.6797 52.3772 74.1382V74.1413ZM64.2271 76.955C61.1464 77.6655 58.0846 77.3838 55.0853 76.3916C54.6001 76.232 54.5312 76.038 54.7034 75.556C55.1385 74.3385 55.5737 73.121 55.2575 71.769C55.0321 70.8081 54.6564 69.9443 53.9896 69.2276C52.8875 68.0446 51.6759 66.9773 50.2984 66.1229C48.7049 65.1339 47.0017 65.04 45.3143 65.8318C44.5723 66.1823 44.3782 65.9507 44.1747 65.281C43.5704 63.2717 43.2636 61.2342 43.3544 59.1372C43.3638 58.9557 43.3826 58.7742 43.4076 58.5927C43.417 58.5175 43.4546 58.4487 43.5078 58.3047C44.9824 59.4033 46.5603 59.9979 48.3354 59.9948C49.7067 59.9948 50.7398 59.372 51.3503 58.1514C51.9452 56.9589 51.8575 55.754 51.031 54.7117C50.6021 54.1703 50.6898 53.9387 51.1907 53.5537C52.8187 52.3018 54.4122 51.0061 56.012 49.7166C57.9186 48.1768 58.5104 45.8138 57.5649 43.5541C57.496 43.3882 57.4334 43.2224 57.3363 42.9782C63.5352 41.9861 68.9264 43.526 73.2155 48.0579C77.8615 52.9653 79.2359 58.8649 77.179 65.2872C75.1628 71.5843 70.6827 75.4621 64.2302 76.9519L64.2271 76.955Z" fill="#2A2A2A"/>
<path d="M68.6455 55.2086C67.1259 53.8272 65.7216 53.2011 64.4862 53.0421C61.1664 52.6149 63.413 57.6875 61.1739 60.1754C60.3977 61.0379 58.6843 61.6115 57.6455 64.2086C56.4881 67.1019 58.749 68.2512 61.0979 68.6026C62.7411 68.8485 64.3629 68.1718 65.5401 66.9992C68.8284 63.7235 72.3108 58.5408 68.6455 55.2086Z" fill="#C1A7FF" stroke="#2A2A2A" stroke-width="3"/>
</g>
<defs>
<clipPath id="clip0_184_756">
<rect width="80" height="80" fill="white" transform="translate(0.666992)"/>
</clipPath>
</defs>
</svg>
