<svg width="90" height="90" viewBox="0 0 90 90" fill="none" xmlns="http://www.w3.org/2000/svg">
<g clip-path="url(#clip0_184_709)">
<rect x="33.1875" y="47.25" width="23.625" height="4.5" fill="#C1A7FF"/>
<rect x="33.1875" y="57.375" width="23.625" height="4.5" fill="#C1A7FF"/>
<circle cx="45" cy="27" r="4.5" fill="#C1A7FF"/>
<path d="M56.25 74.25H24.1875L23.625 78.75L25.3125 82.125L30.9375 85.5L56.25 84.9375V74.25Z" fill="#C1A7FF"/>
<path d="M82.763 65.2058C79.991 65.198 77.2189 65.1862 74.4508 65.2176C73.792 65.2254 73.5411 65.0882 73.5686 64.3708C73.6274 62.842 73.5686 61.3054 73.5921 59.7726C73.6078 58.8553 73.1804 58.479 72.2864 58.4908C70.82 58.5104 69.3497 58.4398 67.8872 58.5182C67.0481 58.5653 66.8952 58.2987 66.8952 57.5069C66.9266 47.597 66.9227 37.6833 66.8991 27.7734C66.8991 27.1031 67.0756 26.6288 67.5578 26.1544C72.3492 21.3994 77.117 16.6248 81.8887 11.8502C82.9042 10.835 82.9081 10.5174 81.92 9.52567C80.7712 8.36926 79.6146 7.21677 78.4618 6.0682C77.3836 4.99019 77.1522 4.99019 76.0818 6.05644C72.7138 9.41983 69.3536 12.7911 65.9777 16.1505C65.7307 16.3975 65.5543 16.9228 65.0524 16.2799C63.0645 13.7319 60.3826 12.7127 57.1871 12.7323C50.2118 12.7754 43.2327 12.7323 36.2574 12.7636C35.4301 12.7675 35.2262 12.5323 35.2576 11.7326C35.3203 10.0706 35.3086 8.40846 35.2576 6.74637C35.1321 2.90474 32.1522 0.0156732 28.3255 0.00783317C21.2208 -6.89062e-06 14.1122 -6.89062e-06 7.00368 0.00783317C3.06711 0.0156732 0.0205846 3.06546 0.00882199 7.00509C-0.00294066 10.8193 -0.00294066 14.6335 0.00882199 18.4477C0.0205846 22.3951 3.03967 25.4136 7.00368 25.4371C9.83848 25.4567 12.6772 25.4841 15.512 25.4136C16.453 25.39 16.6765 25.6174 16.6726 26.566C16.6255 33.9671 16.6491 41.3681 16.6491 48.7691C16.6491 50.2626 16.8608 50.4782 18.3115 50.4782C19.4525 50.4782 20.5974 50.5292 21.7344 50.4626C22.5892 50.4116 22.8872 50.6115 22.8754 51.5523C22.8166 55.9859 22.848 60.4194 22.848 64.853C22.848 68.9298 22.8441 73.0027 22.848 77.0796C22.848 77.8283 22.8323 78.577 22.9931 79.3179C23.9615 83.7201 27.408 86.4876 32.0425 86.4994C39.7705 86.519 47.4986 86.5112 55.2227 86.4916C55.7913 86.4916 56.1559 86.617 56.5009 87.1109C57.8458 89.0239 59.7278 89.9843 62.0686 89.9882C69.0791 89.9961 76.0897 89.9961 83.0963 89.9882C87.0446 89.9843 89.9814 87.0208 89.9931 83.0576C90.001 79.5374 89.9931 76.0133 89.9931 72.4931C89.9931 68.0674 87.1623 65.2136 82.7552 65.2019L82.763 65.2058ZM67.0403 60.6429C67.5029 60.1019 68.5655 60.4822 69.3654 60.4743C71.6238 60.4469 71.6238 60.4626 71.6238 62.9479C71.5611 63.579 71.9531 64.5864 71.4748 65.0608C71.0004 65.5312 69.9927 65.1901 69.2242 65.198C66.9187 65.2176 66.9148 65.2058 66.9226 62.9087C66.9226 62.1325 66.656 61.1015 67.0442 60.6429H67.0403ZM76.619 8.28302C77.1209 7.77734 77.4149 7.68326 77.9011 8.27518C78.4383 8.92591 79.0539 9.52175 79.693 10.0745C80.1988 10.5096 80.2145 10.7644 79.7126 11.2622C75.2663 15.6605 70.8553 20.0941 66.4325 24.5159C63.2998 27.648 60.1513 30.7644 57.0499 33.9279C56.2735 34.7197 55.4462 35.296 54.3641 35.5625C53.4583 35.786 52.5761 36.0956 51.5057 36.421C51.9723 34.951 52.3997 33.6652 52.7839 32.3599C52.8976 31.9796 53.1643 31.764 53.4152 31.517C61.1511 23.775 68.8949 16.0408 76.619 8.28302ZM49.263 33.9396C49.9335 34.312 50.1099 34.6609 49.7923 35.3744C49.5022 36.0212 49.3179 36.7189 49.1414 37.4089C48.8474 38.5339 49.4473 39.0945 50.5686 38.773C51.2234 38.5849 51.8665 38.3653 52.5173 38.1733C52.7604 38.1027 53.0545 37.9851 53.1643 38.3457C53.3799 39.0592 53.6426 39.7687 53.7485 40.4978C53.8269 41.0427 53.2897 40.8154 53.031 40.8193C50.2942 40.8389 47.5574 40.831 44.8206 40.831C42.0838 40.831 39.4765 40.8075 36.8063 40.8467C36.1006 40.8585 35.8967 40.6742 36.0457 39.9647C37.2808 34.0729 43.9972 31.0192 49.263 33.9396ZM40.9742 26.9306C40.9899 24.8216 42.7112 23.1007 44.8167 23.0851C47.0006 23.0694 48.7258 24.7589 48.7297 26.9267C48.7376 29.0984 47.0163 30.8506 44.8716 30.8546C42.7504 30.8585 40.9546 29.0513 40.9742 26.9345V26.9306ZM22.848 36.9659C22.848 40.5488 22.8362 44.1317 22.8597 47.7146C22.8637 48.3301 22.7343 48.5849 22.0638 48.5378C21.1894 48.4751 20.3033 48.4712 19.429 48.5378C18.6958 48.5966 18.5977 48.2987 18.6017 47.6558C18.6252 40.5566 18.6252 33.4535 18.6017 26.3544C18.6017 25.6605 18.7154 25.3508 19.4878 25.4253C20.2955 25.5037 21.1228 25.5076 21.9266 25.4253C22.7578 25.3391 22.8676 25.6958 22.8637 26.4132C22.8323 29.9294 22.848 33.4496 22.848 36.9659ZM17.6332 23.481C14.1475 23.481 10.6579 23.4888 7.17228 23.481C4.09046 23.4731 1.97711 21.3524 1.96926 18.2595C1.96142 14.5747 1.96142 10.8938 1.96926 7.20893C1.97711 4.06115 4.08654 1.96393 7.2507 1.96001C14.1946 1.95217 21.1346 1.95217 28.0784 1.96001C31.2034 1.96001 33.2854 4.01411 33.305 7.13837C33.3285 10.8546 33.3285 14.5708 33.305 18.2869C33.2854 21.4622 31.2073 23.4771 28 23.481C24.5457 23.481 21.0914 23.481 17.6332 23.481ZM54.9757 84.5394C54.8463 84.5355 54.7169 84.5394 54.5836 84.5394C46.9575 84.5394 39.3314 84.5551 31.7092 84.5276C28.3451 84.5159 25.6514 82.305 24.9417 79.0239C24.6712 77.7773 24.8437 76.4916 24.8163 75.2215C24.8006 74.5315 25.3299 74.7707 25.6553 74.7707C30.4467 74.7589 35.2341 74.7628 40.0254 74.7628C44.8167 74.7628 49.5414 74.7785 54.2974 74.7471C55.0071 74.7432 55.2267 74.8883 55.2306 75.6448C55.2423 78.4751 55.0659 81.3132 55.3286 84.1395C55.356 84.4531 55.2659 84.5551 54.9757 84.5433V84.5394ZM55.2345 71.9757C55.207 72.6774 55.0149 72.8107 54.3562 72.8067C44.801 72.7832 35.2497 72.7832 25.6945 72.8067C24.9535 72.8067 24.7927 72.6186 24.7967 71.8973C24.828 65.049 24.828 58.2046 24.7967 51.3563C24.7967 50.5998 25.0084 50.439 25.7181 50.4626C27.3805 50.5174 29.043 50.5057 30.7054 50.4626C31.3171 50.4469 31.5367 50.5802 31.5249 51.2466C31.4935 52.9988 31.6033 53.0772 33.3246 53.0772C41.0527 53.0772 48.7807 53.0772 56.5088 53.0772C58.0536 53.0772 58.2379 52.8891 58.2418 51.3289C58.2418 49.9922 58.2536 48.6554 58.2418 47.3187C58.23 46.2211 57.9438 45.9388 56.8421 45.9388C48.8866 45.9349 40.9311 45.9349 32.9756 45.9388C31.7445 45.9388 31.4582 46.1858 31.5327 47.4363C31.5876 48.3222 31.3328 48.5849 30.4349 48.5417C28.8077 48.4633 27.1727 48.4869 25.5455 48.5339C24.9182 48.5535 24.8045 48.3457 24.8045 47.7656C24.8241 40.5919 24.828 33.4183 24.8006 26.2446C24.8006 25.5116 25.0476 25.4175 25.6867 25.4136C27.0825 25.4057 28.4862 25.5743 29.8742 25.2568C32.9129 24.5708 35.1203 21.9914 35.2497 18.8906C35.2968 17.7185 35.2929 16.5425 35.2693 15.3704C35.2615 14.8726 35.4027 14.6884 35.932 14.6923C43.3346 14.708 50.7333 14.6766 58.1359 14.7236C60.3395 14.7354 62.1156 15.7703 63.5272 17.4598C63.9467 17.9616 63.8996 18.2595 63.437 18.7181C59.5906 22.5245 55.7756 26.3661 51.937 30.1842C51.443 30.6742 50.9921 31.1721 50.8745 31.8855C50.7843 32.4422 50.5451 32.4539 50.106 32.1756C49.6708 31.9012 49.1846 31.713 48.6592 31.4582C51.2901 28.6711 51.3763 25.1509 48.9415 22.7636C46.6791 20.5449 43.0249 20.5449 40.7586 22.7793C38.5903 24.9196 38.2022 28.7377 41.0958 31.4543C39.8803 32.0306 38.708 32.6225 37.7121 33.5045C35.3203 35.6213 34.0774 38.2869 33.9088 41.4622C33.8617 42.3873 34.2225 42.7832 35.1792 42.7832C41.6369 42.795 48.0906 42.7911 54.5483 42.7871C55.4423 42.7871 55.8305 42.3559 55.7991 41.4426C55.7599 40.2587 55.5678 39.1062 55.1208 38.0204C54.9012 37.4833 55.0737 37.2913 55.5246 37.2246C56.6264 37.06 57.3792 36.3818 58.1203 35.6213C60.1042 33.5947 62.1235 31.6033 64.131 29.5962C64.3505 29.3767 64.5819 29.165 64.9504 28.8122V29.8354C64.9504 39.0631 64.9387 48.2909 64.97 57.5186C64.97 58.3418 64.7701 58.5496 63.9624 58.5182C62.2686 58.4477 60.5708 58.479 58.877 58.5104C58.3634 58.5182 58.1752 58.3693 58.23 57.8597C58.2653 57.5382 58.2575 57.205 58.2144 56.8836C58.1399 56.2956 57.834 55.9271 57.1949 55.9232C56.9989 55.9232 56.8028 55.9192 56.6068 55.9192C48.7807 55.9192 40.9546 55.9192 33.1325 55.9192C31.6857 55.9192 31.5014 56.1035 31.5014 57.5421C31.5014 58.7142 31.5014 59.8902 31.5014 61.0623C31.5014 63.0184 31.5406 63.0576 33.4501 63.0576C38.3747 63.0576 43.2954 63.0576 48.22 63.0576C51.0235 63.0576 53.8269 63.0576 56.6343 63.0576C57.9909 63.0576 58.2967 62.8146 58.2104 61.4739C58.1556 60.5684 58.4692 60.4038 59.2887 60.4351C60.9159 60.5018 62.5469 60.4743 64.178 60.443C64.7348 60.4312 65.0014 60.5096 64.9622 61.1682C64.8995 62.2736 64.9191 63.3869 64.9583 64.4923C64.9779 65.0294 64.8367 65.2489 64.2643 65.2097C63.5821 65.1627 62.8959 65.1901 62.2097 65.2019C58.2144 65.2724 55.3835 67.989 55.2267 71.9718L55.2345 71.9757ZM33.6069 48.0792C34.0186 47.5657 35.0694 47.9224 35.8379 47.9185C42.323 47.9028 48.8082 47.9263 55.2933 47.891C56.1206 47.8871 56.3127 48.1223 56.2931 48.922C56.2382 51.1172 56.2775 51.1172 54.117 51.1172C51.0195 51.1172 47.926 51.1172 44.8285 51.1172C41.3075 51.1172 37.7905 51.1015 34.2695 51.129C33.6579 51.1329 33.3834 51.0114 33.4501 50.341C33.5246 49.5688 33.2187 48.5613 33.603 48.0792H33.6069ZM56.2892 58.6789C56.2892 61.0976 56.3167 61.0976 53.9484 61.0976C47.4319 61.0976 40.9115 61.0819 34.395 61.1172C33.6187 61.1211 33.4305 60.9134 33.4422 60.1568C33.4893 57.8949 33.454 57.8949 35.7085 57.8949H44.801C48.3533 57.8949 51.9057 57.9106 55.458 57.8793C56.0853 57.8753 56.2892 58.0204 56.2892 58.6829V58.6789ZM83.0257 88.04C79.5401 88.0517 76.0544 88.04 72.5687 88.04C69.0831 88.04 65.7268 88.0439 62.3078 88.04C59.2652 88.0321 57.2106 86.0251 57.1871 82.9871C57.1596 79.4041 57.1596 75.8212 57.1871 72.2344C57.2106 69.2434 59.2299 67.1933 62.2137 67.1815C69.1536 67.1541 76.0936 67.1541 83.0336 67.1815C86.0331 67.1933 88.0366 69.2552 88.0445 72.2383C88.0562 75.8212 88.0562 79.4042 88.0445 82.991C88.0366 85.9663 85.9899 88.0282 83.0296 88.04H83.0257Z" fill="#030000"/>
<line x1="65.25" y1="74.25" x2="79.875" y2="74.25" stroke="#7A4CEA" stroke-width="2.25" stroke-linecap="round"/>
<line x1="10.125" y1="9" x2="24.75" y2="9" stroke="#7A4CEA" stroke-width="2.25" stroke-linecap="round"/>
<line x1="65.25" y1="81" x2="79.875" y2="81" stroke="#7A4CEA" stroke-width="2.25" stroke-linecap="round"/>
<line x1="10.125" y1="15.75" x2="24.75" y2="15.75" stroke="#7A4CEA" stroke-width="2.25" stroke-linecap="round"/>
</g>
<defs>
<clipPath id="clip0_184_709">
<rect width="90" height="90" fill="white"/>
</clipPath>
</defs>
</svg>
