<svg width="81" height="80" viewBox="0 0 81 80" fill="none" xmlns="http://www.w3.org/2000/svg">
<g clip-path="url(#clip0_184_733)">
<rect x="41.001" y="63" width="19" height="16" fill="#C1A7FF"/>
<path d="M65.001 32L50.501 7.5L44.501 16.5L35.501 24L43.001 36.5L59.001 31L65.001 32Z" fill="#C1A7FF"/>
<path d="M29.3166 55.758C24.9732 55.758 20.6331 55.758 16.2898 55.758C15.9946 55.758 15.6929 55.758 15.401 55.7191C14.8398 55.638 14.5479 55.2423 14.496 54.7297C14.4441 54.2074 14.6938 53.7954 15.2128 53.5878C15.5242 53.4645 15.8486 53.484 16.1697 53.484C24.9343 53.484 33.7021 53.484 42.4666 53.484C42.791 53.484 43.1154 53.4613 43.4235 53.5878C43.936 53.7987 44.1793 54.1977 44.1307 54.7329C44.082 55.265 43.7868 55.638 43.2321 55.7191C42.9402 55.7613 42.6418 55.758 42.3434 55.758C38 55.758 33.6599 55.758 29.3166 55.758Z" fill="#040101"/>
<path d="M25.634 47.359C22.5071 47.359 19.3801 47.359 16.2532 47.359C15.958 47.359 15.6596 47.359 15.3676 47.3103C14.8065 47.2195 14.521 46.8107 14.4918 46.2982C14.4594 45.7435 14.7351 45.299 15.319 45.1693C15.6304 45.0979 15.958 45.0914 16.2824 45.0914C22.5071 45.0882 28.735 45.0882 34.9597 45.0914C36.2183 45.0914 36.7503 45.4191 36.7697 46.2106C36.7892 47.0281 36.2507 47.3687 34.9338 47.3687C31.8328 47.3687 28.735 47.3687 25.634 47.3687V47.359Z" fill="#040101"/>
<path d="M76.4793 20.1581C75.6716 20.1581 74.864 20.1744 74.053 20.1549C73.2097 20.1354 72.7426 19.7364 72.7166 19.0649C72.6939 18.3967 73.1675 17.9101 73.9784 17.8971C75.6749 17.8679 77.3746 17.8679 79.0711 17.8971C79.8885 17.9101 80.3458 18.3902 80.3199 19.0746C80.2939 19.7299 79.856 20.1322 79.0646 20.1549C78.2017 20.1808 77.3389 20.1614 76.4793 20.1614V20.1581Z" fill="#050202"/>
<path d="M69.9785 1.17709C70.0142 1.42364 69.8812 1.66369 69.7449 1.89726C68.9437 3.29542 68.1425 4.69358 67.3251 6.08525C66.8807 6.84434 66.1801 7.0844 65.5865 6.70809C65.0091 6.34477 64.9247 5.71868 65.3724 4.93039C66.1833 3.50628 67.0105 2.08865 67.8279 0.67103C68.1328 0.14226 68.5804 -0.123747 69.174 0.057916C69.6736 0.210383 69.985 0.57371 69.9752 1.18034L69.9785 1.17709Z" fill="#040000"/>
<path d="M78.4157 8.25921C78.4481 8.64849 78.2113 8.97613 77.8513 9.18699C76.4208 10.0272 74.9871 10.8609 73.5371 11.6686C72.8981 12.0255 72.2494 11.8308 71.9347 11.2631C71.6201 10.6987 71.8017 10.0856 72.4505 9.70279C73.8323 8.88206 75.2174 8.07106 76.6187 7.28926C77.5269 6.7832 78.4125 7.25357 78.4157 8.25921Z" fill="#040000"/>
<path d="M71.9503 28.0537C70.5879 25.5818 69.1607 23.1456 67.7172 20.7223C67.3993 20.187 67.4058 19.9178 67.9054 19.4961C69.8224 17.8579 70.2506 15.1264 69.0017 12.9757C67.7399 10.8087 65.1839 9.83872 62.803 10.6919C62.2223 10.8995 61.9823 10.786 61.6904 10.2734C60.2761 7.76905 58.8586 5.2647 57.3665 2.809C56.0982 0.719868 53.5097 0.0386304 51.3624 1.11888C49.202 2.20561 48.1738 4.72295 49.1242 6.93211C49.455 7.70093 49.3058 8.20699 48.9296 8.83633C45.8545 13.978 41.735 18.166 37.0705 21.8545C36.4964 22.3086 35.9871 22.9217 35.1016 22.659C34.9588 22.6168 34.7415 22.7433 34.5826 22.8341C32.5552 24.002 30.502 25.1276 28.5168 26.3604C25.8115 28.0407 24.5303 30.5581 24.4427 32.8937C24.3908 40.1473 31.2026 44.3904 36.9635 41.4806C37.6576 41.1302 37.9301 41.2762 38.3453 41.8407C40.9273 45.3571 43.5482 48.8477 46.1627 52.3415C47.298 53.8596 48.936 54.0089 50.3503 52.7437C50.8336 52.3123 51.3169 51.8808 51.7905 51.4396C53.0458 50.275 53.1886 48.932 52.183 47.5566C51.2456 46.272 50.2919 45.0036 49.3448 43.7287C47.7521 41.5876 46.1789 39.4369 44.557 37.3218C44.1451 36.7833 44.2554 36.6114 44.8392 36.42C45.6015 36.1702 46.3346 35.8263 47.0904 35.5506C52.1538 33.7112 57.3438 32.5142 62.7576 32.4428C63.3901 32.4331 63.8183 32.5791 64.2237 33.15C65.3493 34.7461 67.4772 35.3657 69.3391 34.7558C72.1287 33.8475 73.397 30.6749 71.9535 28.0602L71.9503 28.0537ZM63.7339 12.7518C65.5309 12.2003 67.422 13.6472 67.4123 15.7428C67.4318 16.424 67.1106 17.1085 66.5462 17.6957C66.3484 17.9033 66.1829 18.059 65.9624 17.6665C65.1514 16.2164 64.321 14.7761 63.4744 13.3422C63.2571 12.9757 63.3349 12.8718 63.7339 12.7486V12.7518ZM36.1687 39.3493C35.2151 39.8878 34.1706 40.1181 33.324 40.1441C30.2717 40.1278 27.7091 38.2042 26.9339 35.5246C26.1456 32.8062 27.2258 29.8347 29.6294 28.3327C31.1994 27.3498 32.8374 26.4804 34.4236 25.5234C34.7966 25.2996 34.9134 25.4196 35.0886 25.7245C37.0543 29.1502 39.02 32.5726 41.0116 35.982C41.2517 36.3908 41.1154 36.5205 40.7846 36.7054C39.2406 37.5781 37.716 38.4767 36.172 39.3493H36.1687ZM50.2011 48.6887C50.3406 48.8769 50.4574 49.0877 50.5384 49.2143C50.5384 49.5322 50.3665 49.636 50.2303 49.7625C49.8346 50.1258 49.3967 50.4535 49.0398 50.8525C48.5533 51.3942 48.2322 51.3553 47.7975 50.7616C46.0362 48.3514 44.2359 45.9703 42.4518 43.5794C41.6798 42.5446 40.9208 41.5 40.1261 40.4847C39.8179 40.0922 39.7433 39.8618 40.2785 39.6056C41.0246 39.2455 41.7771 38.4247 42.4421 38.5026C43.1233 38.5837 43.4898 39.6834 43.9861 40.3419C46.0686 43.1156 48.1316 45.9021 50.2011 48.6887ZM58.8846 30.4088C53.6265 30.9246 48.6117 32.3909 43.7591 34.4249C43.1038 34.7006 42.8184 34.6325 42.4648 34.0032C40.8754 31.1679 39.26 28.3424 37.583 25.5558C37.1548 24.8422 37.2781 24.5437 37.8976 24.0669C42.9676 20.187 47.4018 15.7039 50.8336 10.082C54.7131 16.8003 58.5375 23.4245 62.4072 30.1299C61.1746 30.2272 60.0263 30.2953 58.8846 30.4056V30.4088ZM68.4211 32.6407C67.3701 32.91 66.3549 32.4104 65.6899 31.2588C63.3739 27.2589 61.0676 23.2559 58.758 19.256C56.3544 15.0907 53.9444 10.9319 51.5408 6.76666C50.7558 5.40419 50.9991 4.01576 52.1408 3.28262C52.5333 3.02959 52.9583 2.87063 53.3216 2.90632C54.499 2.90632 55.1705 3.4805 55.6765 4.35962C58.0996 8.57681 60.5356 12.7843 62.9652 16.995C65.2585 20.9753 67.5615 24.9492 69.8386 28.9393C70.7501 30.5386 70.0884 32.2125 68.4179 32.6407H68.4211Z" fill="#030000"/>
<path d="M58.9101 61.3015C57.1942 61.3015 55.475 61.3015 53.7591 61.3015C53.7591 61.1847 53.7364 61.1166 53.7623 61.0874C53.9699 60.8376 54.1905 60.6008 54.3948 60.351C57.6742 56.3836 59.1437 51.9393 57.7943 46.8333C56.7465 42.8756 54.2975 39.8555 51.1057 37.3868C50.3369 36.7899 49.7369 36.7867 49.273 37.3641C48.8319 37.9156 48.9908 38.6001 49.7012 39.158C50.937 40.128 52.0788 41.1952 53.039 42.4409C55.2252 45.2794 56.4189 48.4196 55.8772 52.0626C55.342 55.6505 53.399 58.4208 50.7878 60.8084C50.3824 61.1782 49.9574 61.3145 49.4092 61.3112C46.7915 61.2853 44.1739 61.2918 41.5594 61.3015C39.7202 61.3112 38.7114 62.3298 38.6984 64.153C38.6952 64.8537 38.6725 65.5576 38.7082 66.2583C38.7309 66.6865 38.5914 66.8455 38.1632 66.9428C34.0015 67.903 29.7977 68.1398 25.5581 67.7408C24.9807 67.6857 24.5266 67.8057 24.0563 68.1366C20.4655 70.6604 16.8649 73.1615 13.2579 75.6626C13.0373 75.8151 12.846 76.0584 12.4859 76.0941C13.1995 73.0058 13.9034 69.9759 14.5976 66.9428C14.9738 65.2884 14.9155 65.191 13.4136 64.4579C10.4521 63.0111 7.81819 61.1393 5.70976 58.5701C2.01516 54.0739 1.59348 48.5169 4.6588 43.745C6.93265 40.2058 10.2348 37.8864 13.978 36.1314C16.2486 35.0674 18.6198 34.305 21.072 33.7892C21.9057 33.614 22.3306 33.0366 22.1879 32.3846C22.0419 31.7098 21.4743 31.4114 20.6017 31.5736C20.1022 31.6677 19.6026 31.7812 19.1096 31.9077C13.7639 33.3026 8.91457 35.6156 5.00912 39.6316C-0.767954 45.5714 -1.21234 53.4413 3.86409 59.8839C6.00494 62.5991 8.72967 64.5941 11.7723 66.1707C12.2199 66.401 12.3854 66.5892 12.2394 67.1439C11.7463 69.0124 11.3409 70.9037 10.903 72.7885C10.4716 74.6473 10.0304 76.5028 9.61197 78.3616C9.38491 79.3737 10.0369 80.188 10.903 79.9609C11.2273 79.8766 11.5258 79.6527 11.808 79.4548C16.1383 76.4379 20.4622 73.4178 24.7861 70.3944C25.1008 70.1738 25.3959 70.0343 25.8176 70.0635C30.1123 70.3684 34.3778 70.1641 38.7017 69.1455C38.7017 71.7569 38.7017 74.2904 38.7017 76.8272C38.7017 79.0364 39.6456 79.9901 41.8254 79.9901C47.5441 79.9901 53.266 79.9901 58.9847 79.9901C60.9828 79.9901 62.0208 78.9585 62.0241 76.9635C62.0241 72.782 62.0241 68.6005 62.0241 64.4157C62.0241 62.2909 61.038 61.2982 58.9133 61.2982L58.9101 61.3015ZM58.9101 77.7388C56.0524 77.7128 53.1947 77.7258 50.3369 77.7258C47.4792 77.7258 44.6215 77.7128 41.7638 77.7355C41.1799 77.7388 40.9593 77.5831 40.9626 76.9635C40.9853 72.756 40.9853 68.5518 40.9626 64.3444C40.9593 63.7312 41.1572 63.5625 41.7476 63.5658C47.4889 63.582 53.2336 63.582 58.975 63.5658C59.5848 63.5658 59.76 63.7864 59.7567 64.3735C59.7373 68.5518 59.734 72.7333 59.7567 76.9116C59.76 77.5604 59.5329 77.742 58.9069 77.7355L58.9101 77.7388Z" fill="#030000"/>
<path d="M76.4072 35.8493C74.8859 35.0254 73.2543 35.4438 72.3558 36.9231C71.7979 37.8411 71.2821 38.7819 70.7437 39.7129C70.3479 40.4006 70.2636 41.1338 70.455 41.8929C70.7112 42.9147 71.4216 43.5506 72.3396 43.9658C73.0597 44.2902 73.1602 44.7476 72.8813 45.458C72.0639 47.5504 71.0032 49.4968 69.6311 51.2745C68.9455 52.1612 68.1173 52.3461 67.1464 51.8292C65.6413 51.028 64.0389 51.4367 63.1533 52.877C62.5922 53.7918 62.0505 54.7229 61.538 55.6636C60.7076 57.1883 61.1682 58.7941 62.6506 59.7056C65.6023 61.519 68.4536 61.1038 71.188 59.245C73.8511 57.4348 75.7617 54.937 77.3381 52.1796C79.0087 49.26 80.2024 46.1749 80.3321 43.0802C80.3256 39.7129 79.1514 37.3383 76.4072 35.8526V35.8493ZM75.3692 51.028C73.9971 53.435 72.3396 55.6182 70.0657 57.2564C68.2265 58.58 66.2641 59.1379 64.12 57.9312C63.3155 57.4802 63.2377 57.2467 63.6821 56.4681C64.081 55.7674 64.493 55.0732 64.9017 54.379C65.3656 53.5907 65.5602 53.5356 66.3744 54.0092C66.9355 54.3336 67.4967 54.6677 68.1552 54.7164C69.1964 54.791 70.0365 54.3628 70.7015 53.5777C72.6315 51.2972 74.1042 48.7507 75.1162 45.9414C75.6806 44.3778 75.2005 43.0704 73.7863 42.1978C73.5592 42.0583 73.3289 41.9123 73.0921 41.7891C72.6023 41.536 72.5342 41.163 72.7872 40.7153C73.277 39.8492 73.783 38.9928 74.2793 38.1331C74.5875 37.5978 74.9832 37.6692 75.4406 37.9222C77.3446 38.9765 78.081 40.6602 78.055 43.1321C77.909 45.7565 76.8321 48.462 75.3692 51.0312V51.028Z" fill="#030000"/>
<path d="M26.539 11.7566C26.4676 10.7834 25.7962 10.1638 24.8166 10.0276C23.1428 9.79078 22.653 8.65862 23.6456 7.30264C24.343 6.3489 24.2976 5.47627 23.4834 4.61661C23.0001 4.10731 22.5038 3.61422 21.9978 3.12762C21.0863 2.25175 20.1618 2.18038 19.1887 2.96867C18.6567 3.40012 18.1215 3.56556 17.4792 3.29631C16.8273 3.02381 16.6002 2.48856 16.5353 1.82354C16.425 0.694631 15.692 0.0328577 14.5567 0.0133938C13.9111 0.00041782 13.2624 0.0101498 12.6137 0.0133938C11.154 0.0133938 10.5604 0.519456 10.3366 1.94357C10.1095 3.38065 8.90284 3.87374 7.73834 2.99138C7.3199 2.67671 6.88849 2.42368 6.34354 2.44314C5.86671 2.45287 5.44178 2.61832 5.10119 2.94272C4.4784 3.53961 3.85236 4.1365 3.27498 4.77557C2.59379 5.52493 2.59379 6.42027 3.21335 7.27668C4.23512 8.69431 3.76802 9.78753 2.03587 10.0341C1.03032 10.1768 0.378329 10.8678 0.345892 11.8734C0.319942 12.7071 0.316698 13.5473 0.345892 14.381C0.381573 15.3672 1.07897 16.0809 2.06182 16.2041C3.7291 16.415 4.23836 17.5796 3.24254 18.9031C2.57109 19.7952 2.59055 20.7327 3.33985 21.5373C3.87182 22.1114 4.4265 22.6629 5.00064 23.1949C5.82454 23.9638 6.70035 23.9897 7.62806 23.315C8.98718 22.3223 10.129 22.8024 10.3593 24.4666C10.5052 25.5144 11.1767 26.1697 12.2374 26.2183C13.0451 26.2573 13.856 26.2573 14.6637 26.2183C15.6692 26.1697 16.4023 25.4755 16.5321 24.5315C16.7689 22.7959 17.8685 22.3158 19.273 23.3312C20.1878 23.9962 21.0571 23.9605 21.9037 23.182C22.4584 22.6727 22.9936 22.1374 23.5061 21.5794C24.3073 20.7068 24.3332 19.8407 23.6261 18.8837C22.666 17.5828 23.1752 16.3955 24.7711 16.2041C25.7637 16.0841 26.4806 15.4159 26.5422 14.4232C26.5974 13.5376 26.6006 12.639 26.5357 11.7566H26.539ZM23.6975 14.1085C21.2322 14.6795 20.058 17.5017 21.4009 19.6493C21.7837 20.2624 21.4333 20.4408 21.1284 20.7392C20.8138 21.0474 20.6322 21.4724 19.9834 21.0669C17.9074 19.7693 15.0594 20.882 14.4691 23.2079C14.3069 23.847 14.0896 24.1033 13.457 23.9411C12.7823 24.1162 12.5812 23.7983 12.4028 23.1625C11.7541 20.856 8.99691 19.7985 6.93065 21.0442C6.46031 21.3296 6.20082 21.2875 5.89591 20.882C5.61046 20.5024 5.06876 20.337 5.51639 19.6071C6.83983 17.4498 5.6429 14.6924 3.14523 14.0988C2.37322 13.9139 2.64894 13.4111 2.6165 12.9893C2.58731 12.6033 2.51594 12.2692 3.14198 12.1297C5.64938 11.575 6.84632 8.74297 5.48071 6.54354C5.05578 5.85582 5.58451 5.71957 5.85374 5.40815C6.11324 5.10646 6.29488 4.78854 6.87227 5.14214C9.11368 6.52083 11.8644 5.32705 12.4807 2.7351C12.6039 2.21282 12.8959 2.22579 13.23 2.28419C13.6387 2.35555 14.1934 1.94681 14.4042 2.72212C15.1535 5.44383 17.6933 6.47866 20.1423 5.07077C20.4343 4.90208 20.5673 4.94426 20.8106 5.14863C21.4236 5.66442 21.6928 6.05694 21.2128 6.95553C20.1132 9.01222 21.4139 11.6139 23.7169 12.1264C24.3624 12.2692 24.304 12.613 24.2878 13.0413C24.2749 13.4922 24.4403 13.9366 23.6942 14.1085H23.6975Z" fill="#030000"/>
<circle cx="13.501" cy="13.5" r="4.5" stroke="#030000" stroke-width="2"/>
<path d="M48.001 73.6683V68.3317C48.001 67.5405 48.8762 67.0627 49.5417 67.4905L53.6925 70.1588C54.3048 70.5525 54.3048 71.4475 53.6925 71.8412L49.5417 74.5095C48.8762 74.9373 48.001 74.4595 48.001 73.6683Z" fill="white" stroke="black" stroke-width="1.5"/>
</g>
<defs>
<clipPath id="clip0_184_733">
<rect width="80" height="80" fill="white" transform="translate(0.333008)"/>
</clipPath>
</defs>
</svg>
